<mxfile host="Electron" modified="2021-02-10T14:52:05.455Z" agent="5.0 (X11; Linux x86_64) AppleWebKit/537.36 (KHTML, like Gecko) draw.io/14.1.5 Chrome/87.0.4280.88 Electron/11.1.1 Safari/537.36" etag="NwT4yqLr54qhxVgTIkZq" compressed="false" version="14.1.5" type="device" pages="5">
  <diagram id="hjBFqCK36GQGbBJksayl" name="Model Experiment Struct.">
    <mxGraphModel dx="2062" dy="1169" grid="1" gridSize="5" guides="1" tooltips="1" connect="1" arrows="1" fold="1" page="1" pageScale="1" pageWidth="1169" pageHeight="827" background="#FFFFFF" math="1" shadow="0">
      <root>
        <mxCell id="0" />
        <mxCell id="1" parent="0" />
        <mxCell id="cfRCOn9PU6Kkqwpvm4Mf-52" value="&lt;font style=&quot;font-size: 11px&quot;&gt;Utility App. Layer&lt;/font&gt;" style="rounded=1;whiteSpace=wrap;html=1;fillColor=#d0cee2;strokeColor=#56517e;verticalAlign=top;fontColor=#000000;" parent="1" vertex="1">
          <mxGeometry x="610" y="80" width="401" height="170" as="geometry" />
        </mxCell>
        <mxCell id="48" value="&lt;font style=&quot;font-size: 11px&quot;&gt;Physical Layer&lt;/font&gt;" style="rounded=1;whiteSpace=wrap;html=1;fillColor=#b0e3e6;strokeColor=#0e8088;verticalAlign=top;fontColor=#000000;" parent="1" vertex="1">
          <mxGeometry x="20" y="465" width="994" height="103" as="geometry" />
        </mxCell>
        <mxCell id="47" value="&lt;font style=&quot;font-size: 11px&quot;&gt;Driver Layer&lt;/font&gt;" style="rounded=1;whiteSpace=wrap;html=1;fillColor=#fad7ac;strokeColor=#b46504;verticalAlign=top;fontColor=#000000;" parent="1" vertex="1">
          <mxGeometry x="20" y="317.5" width="994" height="103" as="geometry" />
        </mxCell>
        <mxCell id="45" value="&lt;font style=&quot;font-size: 11px&quot;&gt;Software Layer&lt;/font&gt;" style="rounded=1;whiteSpace=wrap;html=1;fillColor=#fad9d5;strokeColor=#ae4132;verticalAlign=top;fontColor=#000000;" parent="1" vertex="1">
          <mxGeometry x="20" y="80" width="540" height="170" as="geometry" />
        </mxCell>
        <mxCell id="17" value="Motor Drivers" style="rounded=0;whiteSpace=wrap;html=1;fillColor=#d5e8d4;strokeColor=#82b366;fontColor=#000000;" parent="1" vertex="1">
          <mxGeometry x="299.04347826086956" y="501.11111111111114" width="93.39130434782608" height="31.11111111111111" as="geometry" />
        </mxCell>
        <mxCell id="5" value="Motor Nodes" style="rounded=0;whiteSpace=wrap;html=1;fillColor=#ffe6cc;strokeColor=#d79b00;fontColor=#000000;" parent="1" vertex="1">
          <mxGeometry x="50" y="368.8888888888889" width="93.39130434782608" height="31.11111111111111" as="geometry" />
        </mxCell>
        <mxCell id="2" value="State Machine" style="rounded=0;whiteSpace=wrap;html=1;fillColor=#f8cecc;strokeColor=#b85450;fontColor=#000000;" parent="1" vertex="1">
          <mxGeometry x="50" y="120" width="467" height="31" as="geometry" />
        </mxCell>
        <mxCell id="3" value="Controller" style="rounded=0;whiteSpace=wrap;html=1;fillColor=#f8cecc;strokeColor=#b85450;fontColor=#000000;" parent="1" vertex="1">
          <mxGeometry x="50" y="182.22222222222223" width="466.9565217391304" height="31.11111111111111" as="geometry" />
        </mxCell>
        <mxCell id="4" value="Motor Nodes" style="rounded=0;whiteSpace=wrap;html=1;fillColor=#ffe6cc;strokeColor=#d79b00;fontColor=#000000;" parent="1" vertex="1">
          <mxGeometry x="57.78260869565217" y="376.6666666666667" width="93.39130434782608" height="31.11111111111111" as="geometry" />
        </mxCell>
        <mxCell id="6" value="Motor Nodes" style="rounded=0;whiteSpace=wrap;html=1;fillColor=#ffe6cc;strokeColor=#d79b00;fontColor=#000000;" parent="1" vertex="1">
          <mxGeometry x="174.52173913043478" y="368.8888888888889" width="93.39130434782608" height="31.11111111111111" as="geometry" />
        </mxCell>
        <mxCell id="26" style="edgeStyle=orthogonalEdgeStyle;rounded=0;orthogonalLoop=1;jettySize=auto;html=1;entryX=0.5;entryY=1;entryDx=0;entryDy=0;strokeWidth=3;startArrow=classic;startFill=1;fontColor=#000000;" parent="1" source="7" target="3" edge="1">
          <mxGeometry relative="1" as="geometry">
            <Array as="points">
              <mxPoint x="229.3891304347826" y="291.1111111111111" />
              <mxPoint x="283.86739130434785" y="291.1111111111111" />
            </Array>
          </mxGeometry>
        </mxCell>
        <mxCell id="7" value="Rudder Nodes" style="rounded=0;whiteSpace=wrap;html=1;fillColor=#ffe6cc;strokeColor=#d79b00;fontColor=#000000;" parent="1" vertex="1">
          <mxGeometry x="182.30434782608694" y="376.6666666666667" width="93.39130434782608" height="31.11111111111111" as="geometry" />
        </mxCell>
        <mxCell id="8" value="GNSS Nodes" style="rounded=0;whiteSpace=wrap;html=1;fillColor=#ffe6cc;strokeColor=#d79b00;fontColor=#000000;" parent="1" vertex="1">
          <mxGeometry x="299.04347826086956" y="368.8888888888889" width="93.39130434782608" height="31.11111111111111" as="geometry" />
        </mxCell>
        <mxCell id="27" style="edgeStyle=orthogonalEdgeStyle;rounded=0;orthogonalLoop=1;jettySize=auto;html=1;strokeWidth=3;startArrow=classic;startFill=1;fontColor=#000000;" parent="1" source="9" target="3" edge="1">
          <mxGeometry relative="1" as="geometry">
            <Array as="points">
              <mxPoint x="353.91086956521735" y="291.1111111111111" />
              <mxPoint x="283.86739130434785" y="291.1111111111111" />
            </Array>
          </mxGeometry>
        </mxCell>
        <mxCell id="9" value="GNSS Nodes" style="rounded=0;whiteSpace=wrap;html=1;fillColor=#ffe6cc;strokeColor=#d79b00;fontColor=#000000;" parent="1" vertex="1">
          <mxGeometry x="306.82608695652175" y="376.6666666666667" width="93.39130434782608" height="31.11111111111111" as="geometry" />
        </mxCell>
        <mxCell id="25" style="edgeStyle=orthogonalEdgeStyle;rounded=0;orthogonalLoop=1;jettySize=auto;html=1;exitX=0.5;exitY=0;exitDx=0;exitDy=0;entryX=0.5;entryY=1;entryDx=0;entryDy=0;strokeWidth=3;startArrow=classic;startFill=1;fontColor=#000000;" parent="1" source="5" target="3" edge="1">
          <mxGeometry relative="1" as="geometry">
            <Array as="points">
              <mxPoint x="97.08478260869565" y="291.1111111111111" />
              <mxPoint x="283.86739130434785" y="291.1111111111111" />
            </Array>
          </mxGeometry>
        </mxCell>
        <mxCell id="28" style="edgeStyle=orthogonalEdgeStyle;rounded=0;orthogonalLoop=1;jettySize=auto;html=1;entryX=0.5;entryY=1;entryDx=0;entryDy=0;strokeWidth=3;startArrow=classic;startFill=1;fontColor=#000000;" parent="1" source="10" target="3" edge="1">
          <mxGeometry relative="1" as="geometry" />
        </mxCell>
        <mxCell id="10" value="IMU Node" style="rounded=0;whiteSpace=wrap;html=1;fillColor=#ffe6cc;strokeColor=#d79b00;fontColor=#000000;" parent="1" vertex="1">
          <mxGeometry x="423.5652173913043" y="368.8888888888889" width="93.39130434782608" height="31.11111111111111" as="geometry" />
        </mxCell>
        <mxCell id="12" value="Motor Drivers" style="rounded=0;whiteSpace=wrap;html=1;fillColor=#d5e8d4;strokeColor=#82b366;fontColor=#000000;" parent="1" vertex="1">
          <mxGeometry x="50" y="501.11111111111114" width="93.39130434782608" height="31.11111111111111" as="geometry" />
        </mxCell>
        <mxCell id="13" value="Motor Drivers" style="rounded=0;whiteSpace=wrap;html=1;fillColor=#d5e8d4;strokeColor=#82b366;fontColor=#000000;" parent="1" vertex="1">
          <mxGeometry x="57.78260869565217" y="508.8888888888889" width="93.39130434782608" height="31.11111111111111" as="geometry" />
        </mxCell>
        <mxCell id="14" value="Motor Drivers" style="rounded=0;whiteSpace=wrap;html=1;fillColor=#d5e8d4;strokeColor=#82b366;fontColor=#000000;" parent="1" vertex="1">
          <mxGeometry x="174.52173913043478" y="501.11111111111114" width="93.39130434782608" height="31.11111111111111" as="geometry" />
        </mxCell>
        <mxCell id="15" value="Rudder Drivers" style="rounded=0;whiteSpace=wrap;html=1;fillColor=#d5e8d4;strokeColor=#82b366;fontColor=#000000;" parent="1" vertex="1">
          <mxGeometry x="182.30434782608694" y="508.8888888888889" width="93.39130434782608" height="31.11111111111111" as="geometry" />
        </mxCell>
        <mxCell id="16" value="GNSSes" style="rounded=0;whiteSpace=wrap;html=1;fillColor=#d5e8d4;strokeColor=#82b366;fontColor=#000000;" parent="1" vertex="1">
          <mxGeometry x="306.82608695652175" y="508.8888888888889" width="93.39130434782608" height="31.11111111111111" as="geometry" />
        </mxCell>
        <mxCell id="18" value="IMU" style="rounded=0;whiteSpace=wrap;html=1;fillColor=#d5e8d4;strokeColor=#82b366;fontColor=#000000;" parent="1" vertex="1">
          <mxGeometry x="423.5652173913043" y="501.11111111111114" width="93.39130434782608" height="31.11111111111111" as="geometry" />
        </mxCell>
        <mxCell id="29" style="edgeStyle=orthogonalEdgeStyle;rounded=0;orthogonalLoop=1;jettySize=auto;html=1;strokeWidth=3;startArrow=classic;startFill=1;entryX=1;entryY=0.5;entryDx=0;entryDy=0;fontColor=#000000;" parent="1" source="19" target="2" edge="1">
          <mxGeometry relative="1" as="geometry">
            <Array as="points">
              <mxPoint x="595" y="291" />
              <mxPoint x="588" y="291" />
              <mxPoint x="588" y="135" />
            </Array>
          </mxGeometry>
        </mxCell>
        <mxCell id="19" value="R/C Nodes" style="rounded=0;whiteSpace=wrap;html=1;fillColor=#ffe6cc;strokeColor=#d79b00;fontColor=#000000;" parent="1" vertex="1">
          <mxGeometry x="548.0869565217391" y="368.8888888888889" width="93.39130434782608" height="31.11111111111111" as="geometry" />
        </mxCell>
        <mxCell id="20" value="R/C Device" style="rounded=0;whiteSpace=wrap;html=1;fillColor=#d5e8d4;strokeColor=#82b366;fontColor=#000000;" parent="1" vertex="1">
          <mxGeometry x="548.0869565217391" y="501.11111111111114" width="93.39130434782608" height="31.11111111111111" as="geometry" />
        </mxCell>
        <mxCell id="21" value="P/M System" style="rounded=0;whiteSpace=wrap;html=1;fillColor=#d5e8d4;strokeColor=#82b366;fontColor=#000000;" parent="1" vertex="1">
          <mxGeometry x="672.6086956521739" y="501.11111111111114" width="93.39130434782608" height="31.11111111111111" as="geometry" />
        </mxCell>
        <mxCell id="30" style="edgeStyle=orthogonalEdgeStyle;rounded=0;orthogonalLoop=1;jettySize=auto;html=1;strokeWidth=3;startArrow=classic;startFill=1;fontColor=#000000;" parent="1" source="22" target="2" edge="1">
          <mxGeometry relative="1" as="geometry">
            <mxPoint x="587.3891304347826" y="152.66666666666666" as="targetPoint" />
            <Array as="points">
              <mxPoint x="719.6934782608695" y="291.1111111111111" />
              <mxPoint x="587.3891304347826" y="291.1111111111111" />
            </Array>
          </mxGeometry>
        </mxCell>
        <mxCell id="36" value="Ethernet" style="edgeStyle=orthogonalEdgeStyle;rounded=0;orthogonalLoop=1;jettySize=auto;html=1;exitX=0.5;exitY=1;exitDx=0;exitDy=0;strokeWidth=3;startArrow=classic;startFill=1;fontColor=#000000;" parent="1" source="22" target="21" edge="1">
          <mxGeometry relative="1" as="geometry" />
        </mxCell>
        <mxCell id="22" value="P/M Nodes" style="rounded=0;whiteSpace=wrap;html=1;fillColor=#ffe6cc;strokeColor=#d79b00;fontColor=#000000;" parent="1" vertex="1">
          <mxGeometry x="672.6086956521739" y="368.8888888888889" width="93.39130434782608" height="31.11111111111111" as="geometry" />
        </mxCell>
        <mxCell id="33" style="edgeStyle=orthogonalEdgeStyle;rounded=0;orthogonalLoop=1;jettySize=auto;html=1;exitX=0.5;exitY=1;exitDx=0;exitDy=0;entryX=0.5;entryY=0;entryDx=0;entryDy=0;strokeWidth=3;startArrow=classic;startFill=1;fontColor=#000000;" parent="1" source="9" target="16" edge="1">
          <mxGeometry relative="1" as="geometry" />
        </mxCell>
        <mxCell id="49" value="UART" style="text;html=1;resizable=0;points=[];align=center;verticalAlign=middle;labelBackgroundColor=#ffffff;fontColor=#000000;" parent="33" vertex="1" connectable="0">
          <mxGeometry x="-0.2245" y="-1" relative="1" as="geometry">
            <mxPoint as="offset" />
          </mxGeometry>
        </mxCell>
        <mxCell id="37" style="edgeStyle=orthogonalEdgeStyle;rounded=0;orthogonalLoop=1;jettySize=auto;html=1;strokeWidth=3;startArrow=classic;startFill=1;exitX=0.5;exitY=1;exitDx=0;exitDy=0;fontColor=#000000;" parent="1" source="3" target="2" edge="1">
          <mxGeometry relative="1" as="geometry">
            <mxPoint x="478.04347826086956" y="376.6666666666667" as="sourcePoint" />
            <mxPoint x="520" y="135" as="targetPoint" />
            <Array as="points">
              <mxPoint x="284" y="291" />
              <mxPoint x="587" y="291" />
              <mxPoint x="587" y="135" />
            </Array>
          </mxGeometry>
        </mxCell>
        <mxCell id="34" style="edgeStyle=orthogonalEdgeStyle;rounded=0;orthogonalLoop=1;jettySize=auto;html=1;exitX=0.5;exitY=1;exitDx=0;exitDy=0;strokeWidth=3;startArrow=classic;startFill=1;fontColor=#000000;" parent="1" source="10" target="18" edge="1">
          <mxGeometry relative="1" as="geometry" />
        </mxCell>
        <mxCell id="50" value="UART" style="text;html=1;resizable=0;points=[];align=center;verticalAlign=middle;labelBackgroundColor=#ffffff;fontColor=#000000;" parent="34" vertex="1" connectable="0">
          <mxGeometry x="0.186" y="-3" relative="1" as="geometry">
            <mxPoint as="offset" />
          </mxGeometry>
        </mxCell>
        <mxCell id="31" value="Ethernet" style="edgeStyle=orthogonalEdgeStyle;rounded=0;orthogonalLoop=1;jettySize=auto;html=1;exitX=0.5;exitY=1;exitDx=0;exitDy=0;entryX=0.5;entryY=0;entryDx=0;entryDy=0;strokeWidth=3;startArrow=classic;startFill=1;fontColor=#000000;" parent="1" source="4" target="13" edge="1">
          <mxGeometry relative="1" as="geometry" />
        </mxCell>
        <mxCell id="35" style="edgeStyle=orthogonalEdgeStyle;rounded=0;orthogonalLoop=1;jettySize=auto;html=1;exitX=0.5;exitY=1;exitDx=0;exitDy=0;strokeWidth=3;startArrow=classic;startFill=1;fontColor=#000000;" parent="1" source="19" target="20" edge="1">
          <mxGeometry relative="1" as="geometry" />
        </mxCell>
        <mxCell id="51" value="Ethernet" style="text;html=1;resizable=0;points=[];align=center;verticalAlign=middle;labelBackgroundColor=#ffffff;fontColor=#000000;" parent="35" vertex="1" connectable="0">
          <mxGeometry x="-0.1684" y="2" relative="1" as="geometry">
            <mxPoint as="offset" />
          </mxGeometry>
        </mxCell>
        <mxCell id="32" value="Ethernet" style="edgeStyle=orthogonalEdgeStyle;rounded=0;orthogonalLoop=1;jettySize=auto;html=1;exitX=0.5;exitY=1;exitDx=0;exitDy=0;strokeWidth=3;startArrow=classic;startFill=1;fontColor=#000000;" parent="1" source="7" target="15" edge="1">
          <mxGeometry relative="1" as="geometry" />
        </mxCell>
        <mxCell id="44" value="" style="edgeStyle=orthogonalEdgeStyle;rounded=0;orthogonalLoop=1;jettySize=auto;html=1;startArrow=classic;startFill=1;strokeWidth=3;entryX=1;entryY=0.5;entryDx=0;entryDy=0;fontColor=#000000;" parent="1" source="39" target="2" edge="1">
          <mxGeometry relative="1" as="geometry">
            <mxPoint x="720" y="174.4999999999999" as="targetPoint" />
          </mxGeometry>
        </mxCell>
        <mxCell id="39" value="Dashboard (For Model Experiment)" style="rounded=0;whiteSpace=wrap;html=1;fillColor=#e1d5e7;strokeColor=#9673a6;fontColor=#000000;" parent="1" vertex="1">
          <mxGeometry x="790" y="120" width="206" height="31" as="geometry" />
        </mxCell>
        <mxCell id="42" value="" style="edgeStyle=orthogonalEdgeStyle;rounded=0;orthogonalLoop=1;jettySize=auto;html=1;startArrow=classic;startFill=1;strokeWidth=3;entryX=1;entryY=0.5;entryDx=0;entryDy=0;fontColor=#000000;" parent="1" source="40" target="2" edge="1">
          <mxGeometry relative="1" as="geometry">
            <mxPoint x="590" y="151" as="targetPoint" />
            <Array as="points">
              <mxPoint x="720" y="195" />
              <mxPoint x="720" y="135" />
            </Array>
          </mxGeometry>
        </mxCell>
        <mxCell id="40" value="Logger" style="rounded=0;whiteSpace=wrap;html=1;fillColor=#e1d5e7;strokeColor=#9673a6;fontColor=#000000;" parent="1" vertex="1">
          <mxGeometry x="790" y="180" width="206" height="31" as="geometry" />
        </mxCell>
      </root>
    </mxGraphModel>
  </diagram>
  <diagram name="Simulator Struct." id="HK-y6wQZ6_7OkLX4ybTz">
    <mxGraphModel dx="2062" dy="1169" grid="1" gridSize="10" guides="1" tooltips="1" connect="1" arrows="1" fold="1" page="1" pageScale="1" pageWidth="1169" pageHeight="827" math="0" shadow="0">
      <root>
        <mxCell id="ogYYz_Yha8GQ06ryE8u4-0" />
        <mxCell id="ogYYz_Yha8GQ06ryE8u4-1" parent="ogYYz_Yha8GQ06ryE8u4-0" />
        <mxCell id="NTiBn4Gaw-3yD84KuiRq-7" value="" style="rounded=1;whiteSpace=wrap;html=1;fillColor=#d5e8d4;strokeColor=#82b366;verticalAlign=bottom;fontSize=18;arcSize=2;fontColor=#000000;" parent="ogYYz_Yha8GQ06ryE8u4-1" vertex="1">
          <mxGeometry x="10" y="8" width="1130" height="810" as="geometry" />
        </mxCell>
        <mxCell id="yNl9XsQ0cLvUOxnpqgXL-16" value="&lt;font style=&quot;font-size: 18px&quot;&gt;Shipsim&lt;/font&gt;" style="rounded=1;whiteSpace=wrap;html=1;fillColor=#bac8d3;strokeColor=#23445d;verticalAlign=bottom;fontSize=18;arcSize=4;fontColor=#000000;" parent="ogYYz_Yha8GQ06ryE8u4-1" vertex="1">
          <mxGeometry x="25" y="283" width="786" height="445" as="geometry" />
        </mxCell>
        <mxCell id="4Q7JfauaC_aZJzyatZ7J-1" value="&lt;font style=&quot;font-size: 18px&quot;&gt;GUIs&lt;/font&gt;" style="rounded=1;whiteSpace=wrap;html=1;fillColor=#ffe6cc;strokeColor=#d79b00;verticalAlign=bottom;fontSize=18;arcSize=4;fontColor=#000000;" parent="ogYYz_Yha8GQ06ryE8u4-1" vertex="1">
          <mxGeometry x="660" y="301" width="140" height="409" as="geometry" />
        </mxCell>
        <mxCell id="NTiBn4Gaw-3yD84KuiRq-10" value="&lt;font style=&quot;font-size: 18px&quot;&gt;ROS Param&lt;/font&gt;" style="rounded=1;whiteSpace=wrap;html=1;fillColor=#f5f5f5;strokeColor=#666666;verticalAlign=bottom;fontSize=18;arcSize=4;fontColor=#000000;" parent="ogYYz_Yha8GQ06ryE8u4-1" vertex="1">
          <mxGeometry x="830" y="620" width="300" height="108" as="geometry" />
        </mxCell>
        <mxCell id="ogYYz_Yha8GQ06ryE8u4-2" value="&lt;font style=&quot;font-size: 11px&quot;&gt;Utility App.&lt;/font&gt;" style="rounded=1;whiteSpace=wrap;html=1;fillColor=#d0cee2;strokeColor=#56517e;verticalAlign=top;arcSize=7;fontColor=#000000;" parent="ogYYz_Yha8GQ06ryE8u4-1" vertex="1">
          <mxGeometry x="800" y="40" width="310" height="140" as="geometry" />
        </mxCell>
        <mxCell id="ogYYz_Yha8GQ06ryE8u4-5" value="&lt;font&gt;&lt;span style=&quot;font-size: 11px&quot;&gt;Control App.&lt;/span&gt;&lt;/font&gt;" style="rounded=1;whiteSpace=wrap;html=1;fillColor=#fad9d5;strokeColor=#ae4132;verticalAlign=top;fontColor=#000000;" parent="ogYYz_Yha8GQ06ryE8u4-1" vertex="1">
          <mxGeometry x="24.5" y="28" width="540" height="170" as="geometry" />
        </mxCell>
        <mxCell id="ogYYz_Yha8GQ06ryE8u4-8" value="State Machine" style="rounded=0;whiteSpace=wrap;html=1;fillColor=#f8cecc;strokeColor=#b85450;fontColor=#000000;" parent="ogYYz_Yha8GQ06ryE8u4-1" vertex="1">
          <mxGeometry x="54.5" y="68" width="467" height="31" as="geometry" />
        </mxCell>
        <mxCell id="ogYYz_Yha8GQ06ryE8u4-9" value="Controller" style="rounded=0;whiteSpace=wrap;html=1;fillColor=#f8cecc;strokeColor=#b85450;fontColor=#000000;" parent="ogYYz_Yha8GQ06ryE8u4-1" vertex="1">
          <mxGeometry x="54.5" y="130.22222222222223" width="466.9565217391304" height="31.11111111111111" as="geometry" />
        </mxCell>
        <mxCell id="ogYYz_Yha8GQ06ryE8u4-11" value="Motor PHY&lt;br&gt;Simulator" style="rounded=0;whiteSpace=wrap;html=1;fillColor=#dae8fc;strokeColor=#6c8ebf;fontColor=#000000;" parent="ogYYz_Yha8GQ06ryE8u4-1" vertex="1">
          <mxGeometry x="44.5" y="328" width="100" height="70" as="geometry" />
        </mxCell>
        <mxCell id="ogYYz_Yha8GQ06ryE8u4-12" style="edgeStyle=orthogonalEdgeStyle;rounded=0;orthogonalLoop=1;jettySize=auto;html=1;entryX=0.5;entryY=1;entryDx=0;entryDy=0;strokeWidth=3;startArrow=classic;startFill=1;exitX=0.5;exitY=0;exitDx=0;exitDy=0;fontColor=#000000;strokeColor=#FF0000;" parent="ogYYz_Yha8GQ06ryE8u4-1" source="yNl9XsQ0cLvUOxnpqgXL-0" target="ogYYz_Yha8GQ06ryE8u4-9" edge="1">
          <mxGeometry relative="1" as="geometry">
            <Array as="points">
              <mxPoint x="194.5" y="239" />
              <mxPoint x="287.5" y="239" />
            </Array>
            <mxPoint x="233.5" y="316.66666666666674" as="sourcePoint" />
          </mxGeometry>
        </mxCell>
        <mxCell id="ogYYz_Yha8GQ06ryE8u4-17" style="edgeStyle=orthogonalEdgeStyle;rounded=0;orthogonalLoop=1;jettySize=auto;html=1;exitX=0.5;exitY=0;exitDx=0;exitDy=0;entryX=0.5;entryY=1;entryDx=0;entryDy=0;strokeWidth=3;startArrow=classic;startFill=1;fontColor=#000000;strokeColor=#FF0000;" parent="ogYYz_Yha8GQ06ryE8u4-1" source="ogYYz_Yha8GQ06ryE8u4-11" target="ogYYz_Yha8GQ06ryE8u4-9" edge="1">
          <mxGeometry relative="1" as="geometry">
            <Array as="points">
              <mxPoint x="94.5" y="239" />
              <mxPoint x="287.5" y="239" />
            </Array>
            <mxPoint x="101.5" y="317" as="sourcePoint" />
          </mxGeometry>
        </mxCell>
        <mxCell id="ogYYz_Yha8GQ06ryE8u4-18" style="edgeStyle=orthogonalEdgeStyle;rounded=0;orthogonalLoop=1;jettySize=auto;html=1;entryX=0.5;entryY=1;entryDx=0;entryDy=0;strokeWidth=3;startArrow=classic;startFill=1;exitX=0.5;exitY=0;exitDx=0;exitDy=0;fontColor=#000000;strokeColor=#FF0000;" parent="ogYYz_Yha8GQ06ryE8u4-1" source="yNl9XsQ0cLvUOxnpqgXL-5" target="ogYYz_Yha8GQ06ryE8u4-9" edge="1">
          <mxGeometry relative="1" as="geometry">
            <mxPoint x="416.5" y="268" as="sourcePoint" />
            <Array as="points">
              <mxPoint x="394.5" y="239" />
              <mxPoint x="287.5" y="239" />
            </Array>
          </mxGeometry>
        </mxCell>
        <mxCell id="yNl9XsQ0cLvUOxnpqgXL-8" style="edgeStyle=orthogonalEdgeStyle;rounded=0;orthogonalLoop=1;jettySize=auto;html=1;exitX=0.5;exitY=0;exitDx=0;exitDy=0;startArrow=classic;startFill=1;strokeWidth=3;entryX=0.5;entryY=1;entryDx=0;entryDy=0;fontColor=#000000;strokeColor=#FF0000;" parent="ogYYz_Yha8GQ06ryE8u4-1" source="ogYYz_Yha8GQ06ryE8u4-32" target="ogYYz_Yha8GQ06ryE8u4-9" edge="1">
          <mxGeometry relative="1" as="geometry">
            <Array as="points">
              <mxPoint x="487.5" y="238" />
              <mxPoint x="287.5" y="238" />
            </Array>
          </mxGeometry>
        </mxCell>
        <mxCell id="ogYYz_Yha8GQ06ryE8u4-35" style="edgeStyle=orthogonalEdgeStyle;rounded=0;orthogonalLoop=1;jettySize=auto;html=1;strokeWidth=3;startArrow=classic;startFill=1;exitX=0.5;exitY=1;exitDx=0;exitDy=0;fontColor=#000000;strokeColor=#FF0000;" parent="ogYYz_Yha8GQ06ryE8u4-1" source="ogYYz_Yha8GQ06ryE8u4-9" target="ogYYz_Yha8GQ06ryE8u4-8" edge="1">
          <mxGeometry relative="1" as="geometry">
            <mxPoint x="482.5434782608695" y="324.6666666666667" as="sourcePoint" />
            <mxPoint x="524.5" y="83" as="targetPoint" />
            <Array as="points">
              <mxPoint x="287.5" y="238" />
              <mxPoint x="591.5" y="238" />
              <mxPoint x="591.5" y="83" />
            </Array>
          </mxGeometry>
        </mxCell>
        <mxCell id="ogYYz_Yha8GQ06ryE8u4-42" value="" style="edgeStyle=orthogonalEdgeStyle;rounded=0;orthogonalLoop=1;jettySize=auto;html=1;startArrow=classic;startFill=1;strokeWidth=3;entryX=1;entryY=0.5;entryDx=0;entryDy=0;fontColor=#000000;strokeColor=#FF0000;" parent="ogYYz_Yha8GQ06ryE8u4-1" source="ogYYz_Yha8GQ06ryE8u4-43" target="ogYYz_Yha8GQ06ryE8u4-8" edge="1">
          <mxGeometry relative="1" as="geometry">
            <mxPoint x="724.5" y="122.49999999999989" as="targetPoint" />
          </mxGeometry>
        </mxCell>
        <mxCell id="ogYYz_Yha8GQ06ryE8u4-43" value="Dashboard" style="rounded=0;whiteSpace=wrap;html=1;fillColor=#e1d5e7;strokeColor=#9673a6;fontColor=#000000;" parent="ogYYz_Yha8GQ06ryE8u4-1" vertex="1">
          <mxGeometry x="877" y="68" width="206" height="31" as="geometry" />
        </mxCell>
        <mxCell id="ogYYz_Yha8GQ06ryE8u4-44" value="" style="edgeStyle=orthogonalEdgeStyle;rounded=0;orthogonalLoop=1;jettySize=auto;html=1;startArrow=classic;startFill=1;strokeWidth=3;entryX=1;entryY=0.5;entryDx=0;entryDy=0;fontColor=#000000;strokeColor=#FF0000;" parent="ogYYz_Yha8GQ06ryE8u4-1" source="ogYYz_Yha8GQ06ryE8u4-45" target="ogYYz_Yha8GQ06ryE8u4-8" edge="1">
          <mxGeometry relative="1" as="geometry">
            <mxPoint x="594.5" y="99" as="targetPoint" />
            <Array as="points">
              <mxPoint x="724.5" y="143" />
              <mxPoint x="724.5" y="83" />
            </Array>
          </mxGeometry>
        </mxCell>
        <mxCell id="ogYYz_Yha8GQ06ryE8u4-45" value="Logger" style="rounded=0;whiteSpace=wrap;html=1;fillColor=#e1d5e7;strokeColor=#9673a6;fontColor=#000000;" parent="ogYYz_Yha8GQ06ryE8u4-1" vertex="1">
          <mxGeometry x="877" y="130" width="206" height="31" as="geometry" />
        </mxCell>
        <mxCell id="yNl9XsQ0cLvUOxnpqgXL-0" value="Rudder PHY&lt;br&gt;Simulator" style="rounded=0;whiteSpace=wrap;html=1;fillColor=#dae8fc;strokeColor=#6c8ebf;fontColor=#000000;" parent="ogYYz_Yha8GQ06ryE8u4-1" vertex="1">
          <mxGeometry x="144.5" y="328" width="100" height="70" as="geometry" />
        </mxCell>
        <mxCell id="yNl9XsQ0cLvUOxnpqgXL-3" value="Actuator Filter" style="rounded=0;whiteSpace=wrap;html=1;fillColor=#dae8fc;strokeColor=#6c8ebf;fontColor=#000000;" parent="ogYYz_Yha8GQ06ryE8u4-1" vertex="1">
          <mxGeometry x="45" y="398" width="200" height="32" as="geometry" />
        </mxCell>
        <mxCell id="yNl9XsQ0cLvUOxnpqgXL-9" style="edgeStyle=orthogonalEdgeStyle;rounded=0;orthogonalLoop=1;jettySize=auto;html=1;exitX=0.5;exitY=0;exitDx=0;exitDy=0;startArrow=classic;startFill=1;strokeWidth=3;fontColor=#000000;strokeColor=#FF0000;" parent="ogYYz_Yha8GQ06ryE8u4-1" source="yNl9XsQ0cLvUOxnpqgXL-4" target="ogYYz_Yha8GQ06ryE8u4-9" edge="1">
          <mxGeometry relative="1" as="geometry">
            <Array as="points">
              <mxPoint x="294.5" y="238" />
              <mxPoint x="288.5" y="238" />
            </Array>
          </mxGeometry>
        </mxCell>
        <mxCell id="ogYYz_Yha8GQ06ryE8u4-32" value="Power State&lt;br&gt;&amp;nbsp;Eumulator" style="rounded=0;whiteSpace=wrap;html=1;fillColor=#dae8fc;strokeColor=#6c8ebf;fontColor=#000000;" parent="ogYYz_Yha8GQ06ryE8u4-1" vertex="1">
          <mxGeometry x="445" y="328" width="87" height="102" as="geometry" />
        </mxCell>
        <mxCell id="yNl9XsQ0cLvUOxnpqgXL-4" value="GNSS&lt;br&gt;Emulator" style="rounded=0;whiteSpace=wrap;html=1;fillColor=#dae8fc;strokeColor=#6c8ebf;fontColor=#000000;" parent="ogYYz_Yha8GQ06ryE8u4-1" vertex="1">
          <mxGeometry x="244.5" y="328" width="100" height="70" as="geometry" />
        </mxCell>
        <mxCell id="yNl9XsQ0cLvUOxnpqgXL-5" value="IMU&lt;br&gt;Emulator" style="rounded=0;whiteSpace=wrap;html=1;fillColor=#dae8fc;strokeColor=#6c8ebf;fontColor=#000000;" parent="ogYYz_Yha8GQ06ryE8u4-1" vertex="1">
          <mxGeometry x="344.5" y="328" width="100" height="71" as="geometry" />
        </mxCell>
        <mxCell id="yNl9XsQ0cLvUOxnpqgXL-12" style="edgeStyle=orthogonalEdgeStyle;rounded=0;orthogonalLoop=1;jettySize=auto;html=1;exitX=0.5;exitY=0;exitDx=0;exitDy=0;startArrow=classic;startFill=1;strokeWidth=3;fontColor=#000000;strokeColor=#FF0000;" parent="ogYYz_Yha8GQ06ryE8u4-1" source="yNl9XsQ0cLvUOxnpqgXL-10" target="ogYYz_Yha8GQ06ryE8u4-9" edge="1">
          <mxGeometry relative="1" as="geometry">
            <Array as="points">
              <mxPoint x="575.5" y="238" />
              <mxPoint x="288.5" y="238" />
            </Array>
          </mxGeometry>
        </mxCell>
        <mxCell id="yNl9XsQ0cLvUOxnpqgXL-10" value="R/C State&lt;br&gt;&amp;nbsp;Eumulator" style="rounded=0;whiteSpace=wrap;html=1;fillColor=#dae8fc;strokeColor=#6c8ebf;fontColor=#000000;" parent="ogYYz_Yha8GQ06ryE8u4-1" vertex="1">
          <mxGeometry x="532" y="328" width="87" height="102" as="geometry" />
        </mxCell>
        <mxCell id="yNl9XsQ0cLvUOxnpqgXL-13" value="Attitude Calc." style="rounded=0;whiteSpace=wrap;html=1;fillColor=#dae8fc;strokeColor=#6c8ebf;fontColor=#000000;" parent="ogYYz_Yha8GQ06ryE8u4-1" vertex="1">
          <mxGeometry x="245" y="398" width="200" height="32" as="geometry" />
        </mxCell>
        <mxCell id="vrd_RnSi6nl5q11-2nxa-0" value="Visualizer&lt;br&gt;(RViz)" style="rounded=0;whiteSpace=wrap;html=1;fillColor=#fff2cc;strokeColor=#d6b656;fontColor=#000000;" parent="ogYYz_Yha8GQ06ryE8u4-1" vertex="1">
          <mxGeometry x="670" y="328" width="121" height="102" as="geometry" />
        </mxCell>
        <mxCell id="pWv-13sc1KTOCW9-Gt8a-0" style="edgeStyle=orthogonalEdgeStyle;rounded=0;orthogonalLoop=1;jettySize=auto;html=1;exitX=0.5;exitY=0;exitDx=0;exitDy=0;startArrow=classic;startFill=1;strokeWidth=3;entryX=0.5;entryY=1;entryDx=0;entryDy=0;fontColor=#000000;strokeColor=#FF0000;" parent="ogYYz_Yha8GQ06ryE8u4-1" source="vrd_RnSi6nl5q11-2nxa-0" target="ogYYz_Yha8GQ06ryE8u4-9" edge="1">
          <mxGeometry relative="1" as="geometry">
            <Array as="points">
              <mxPoint x="730" y="238" />
              <mxPoint x="288" y="238" />
            </Array>
            <mxPoint x="642.5" y="336" as="sourcePoint" />
            <mxPoint x="298.5" y="171.33333333333326" as="targetPoint" />
          </mxGeometry>
        </mxCell>
        <mxCell id="NTiBn4Gaw-3yD84KuiRq-0" value="Shipsim Core (I/O interface)" style="rounded=0;whiteSpace=wrap;html=1;fillColor=#dae8fc;strokeColor=#6c8ebf;verticalAlign=bottom;fontColor=#000000;" parent="ogYYz_Yha8GQ06ryE8u4-1" vertex="1">
          <mxGeometry x="45" y="473" width="455" height="207" as="geometry" />
        </mxCell>
        <mxCell id="4Q7JfauaC_aZJzyatZ7J-4" style="edgeStyle=orthogonalEdgeStyle;rounded=0;orthogonalLoop=1;jettySize=auto;html=1;exitX=0.5;exitY=1;exitDx=0;exitDy=0;startArrow=classic;startFill=1;strokeWidth=3;entryX=0.5;entryY=0;entryDx=0;entryDy=0;endArrow=none;endFill=0;fontColor=#000000;" parent="ogYYz_Yha8GQ06ryE8u4-1" source="NTiBn4Gaw-3yD84KuiRq-1" target="yNl9XsQ0cLvUOxnpqgXL-14" edge="1">
          <mxGeometry relative="1" as="geometry">
            <Array as="points">
              <mxPoint x="380" y="600" />
              <mxPoint x="273" y="600" />
            </Array>
          </mxGeometry>
        </mxCell>
        <mxCell id="4Q7JfauaC_aZJzyatZ7J-5" style="edgeStyle=orthogonalEdgeStyle;rounded=0;orthogonalLoop=1;jettySize=auto;html=1;exitX=0;exitY=0.5;exitDx=0;exitDy=0;startArrow=classic;startFill=1;endArrow=classic;endFill=1;strokeWidth=3;fontColor=#000000;" parent="ogYYz_Yha8GQ06ryE8u4-1" source="NTiBn4Gaw-3yD84KuiRq-1" target="yNl9XsQ0cLvUOxnpqgXL-15" edge="1">
          <mxGeometry relative="1" as="geometry" />
        </mxCell>
        <mxCell id="NTiBn4Gaw-3yD84KuiRq-1" value="Dynamics Solver" style="rounded=0;whiteSpace=wrap;html=1;fontColor=#000000;" parent="ogYYz_Yha8GQ06ryE8u4-1" vertex="1">
          <mxGeometry x="270" y="523" width="220" height="51" as="geometry" />
        </mxCell>
        <mxCell id="NTiBn4Gaw-3yD84KuiRq-4" value="" style="edgeStyle=orthogonalEdgeStyle;rounded=0;orthogonalLoop=1;jettySize=auto;html=1;entryX=0.5;entryY=1;entryDx=0;entryDy=0;startArrow=classic;startFill=1;strokeWidth=3;exitX=0.5;exitY=0;exitDx=0;exitDy=0;fontColor=#000000;fillColor=#008a00;strokeColor=#005700;" parent="ogYYz_Yha8GQ06ryE8u4-1" source="4Q7JfauaC_aZJzyatZ7J-3" target="yNl9XsQ0cLvUOxnpqgXL-13" edge="1">
          <mxGeometry relative="1" as="geometry">
            <mxPoint x="344.5" y="458" as="sourcePoint" />
            <mxPoint x="154.5" y="578" as="targetPoint" />
            <Array as="points">
              <mxPoint x="280" y="460" />
              <mxPoint x="345" y="460" />
            </Array>
          </mxGeometry>
        </mxCell>
        <mxCell id="NTiBn4Gaw-3yD84KuiRq-5" value="" style="edgeStyle=orthogonalEdgeStyle;rounded=0;orthogonalLoop=1;jettySize=auto;html=1;entryX=0.5;entryY=1;entryDx=0;entryDy=0;startArrow=classic;startFill=1;strokeWidth=3;fontColor=#000000;fillColor=#008a00;strokeColor=#005700;" parent="ogYYz_Yha8GQ06ryE8u4-1" source="4Q7JfauaC_aZJzyatZ7J-3" edge="1">
          <mxGeometry relative="1" as="geometry">
            <mxPoint x="144" y="473" as="sourcePoint" />
            <mxPoint x="144" y="428" as="targetPoint" />
          </mxGeometry>
        </mxCell>
        <mxCell id="NTiBn4Gaw-3yD84KuiRq-9" value="Model Parameters" style="rounded=0;whiteSpace=wrap;html=1;fontColor=#000000;" parent="ogYYz_Yha8GQ06ryE8u4-1" vertex="1">
          <mxGeometry x="850" y="650" width="260" height="50" as="geometry" />
        </mxCell>
        <mxCell id="NTiBn4Gaw-3yD84KuiRq-11" value="" style="edgeStyle=orthogonalEdgeStyle;rounded=0;orthogonalLoop=1;jettySize=auto;html=1;entryX=0.25;entryY=1;entryDx=0;entryDy=0;startArrow=classic;startFill=1;strokeWidth=3;exitX=1;exitY=0.5;exitDx=0;exitDy=0;fontColor=#000000;fillColor=#008a00;strokeColor=#005700;" parent="ogYYz_Yha8GQ06ryE8u4-1" source="yNl9XsQ0cLvUOxnpqgXL-14" target="NTiBn4Gaw-3yD84KuiRq-9" edge="1">
          <mxGeometry relative="1" as="geometry">
            <mxPoint x="154.5" y="660" as="sourcePoint" />
            <mxPoint x="154.5" y="593.1666666666667" as="targetPoint" />
            <Array as="points">
              <mxPoint x="590" y="632" />
              <mxPoint x="590" y="750" />
              <mxPoint x="915" y="750" />
            </Array>
          </mxGeometry>
        </mxCell>
        <mxCell id="NTiBn4Gaw-3yD84KuiRq-12" value="Parameter Setting GUI&lt;br&gt;(R-Qt)" style="rounded=0;whiteSpace=wrap;html=1;fillColor=#fff2cc;strokeColor=#d6b656;fontColor=#000000;" parent="ogYYz_Yha8GQ06ryE8u4-1" vertex="1">
          <mxGeometry x="671" y="570" width="120" height="87" as="geometry" />
        </mxCell>
        <mxCell id="NTiBn4Gaw-3yD84KuiRq-13" value="" style="edgeStyle=orthogonalEdgeStyle;rounded=0;orthogonalLoop=1;jettySize=auto;html=1;startArrow=classic;startFill=1;strokeWidth=3;exitX=1;exitY=0.5;exitDx=0;exitDy=0;entryX=0.5;entryY=0;entryDx=0;entryDy=0;fillColor=#fa6800;strokeColor=#C73500;fontColor=#000000;" parent="ogYYz_Yha8GQ06ryE8u4-1" source="NTiBn4Gaw-3yD84KuiRq-12" target="NTiBn4Gaw-3yD84KuiRq-9" edge="1">
          <mxGeometry relative="1" as="geometry">
            <mxPoint x="531.1666666666667" y="93.16666666666674" as="targetPoint" />
            <Array as="points">
              <mxPoint x="980" y="613" />
            </Array>
            <mxPoint x="887" y="153.16666666666674" as="sourcePoint" />
          </mxGeometry>
        </mxCell>
        <mxCell id="Q2_YKRXVVJxu78JbMUjl-0" value="" style="shape=image;verticalLabelPosition=bottom;labelBackgroundColor=#ffffff;verticalAlign=top;aspect=fixed;imageAspect=0;image=data:image/webp,UklGRmhUAABXRUJQVlA4WAoAAAAQAAAArwQAPwEAQUxQSKwyAAAB/yckSPD/eGtEpO7hDQCgZ06ybZvdzaZCQiChQ+gdQu+9iXSRWABjAQERRWqUolEvLmNBpBuqBEGIgEAAwdAJPfTeIfQS0kjP7vzQi+zOzHHsee/dIvo/AfD/fvQLLFmlSmiTJk0aVqlSKrCooeAZVKVKwyZ/r1alcmCgx3/vCWz6esTMFX8eT8rCwubcPbV95aypg1sGu2rmkE7vTpuzNuHy4xwsdNr1o3/+OnvqkLblzP+tpny/yN+OJiPF9JNro16vbnKhPBsOidp8ORdJ5l6NX/BBG////lJqwPQ/HyH11D0/Dqnm+pjrvrfwTD7Sv7Hx675ByvENrlI50EM93kFVqhT3VI9X8SpVSnj/V13RrlGJdmT7IHZ4JdfFFDo2Lg0Z2y8sDK+iiIB+/15/MQ//Me3o8k9be6jB7+WvYs/k4D9mHl81tZOXGry7TPvtRBb+Y87pNV++5KuyqsO18I2wsO6tG1QOcJFMLb89YUP2V6Nf9nJBir25+jFKeG/JgKLSVZhyqAALnbbxLV/pSo7bm4uFztw2IkC6wFHxWVjonN1jgpX1Bmpl7t3ELYumDGpdxoUxt511B6XMjAsv6lKU/XhHHsqZu2NsDbnMA7bb0MFpC+tJ1n1DHjo4a0VLydr8lo0Ozl3XxQh4wdRDi8d1C3RB2ix8grJm/THA00UoFh6Xj+Kej6wmkqnPcXSmPa6xVF0PoVMTOkrVJg6deqCPgfDPV1d+0tTiQgQOP40SP4sO1T9T199zUGZ7wqggcRonorPtCwMlqrkbnR5bRqIKG9Dp26saDH9PjRvX0CUw9Vyfh2Ifet9P64ImXEHJ8zb2MEviOyMfCT58Qxzr5zlIMHWkSRrzx+lIMOszD8Ph749iwoponmf4OZQ9dVZZbasyKxPFvxYRJEb100g0xleWcglIdFOgLAHrkei+MkYEImbHhfvqW9Exd1D+3Jg6WtZirQ2VmLW0sQyvpCHZE1Uk6fQIyV5tIEmTm0j2fjtjAhFTlrTVs6Dv0lGNtj8aale9WDuqM6GPACNtSPhhqBz9cpBwRmc5OqQj4dxXjQpEvBQRpF1+ESmoTntsda2qs9aOat3/MrcIO5JOaSXFkHwkndlDil5ZSLrgXeMCMXtRba2yDn+Aas2LLqdNJeblo3pP9GM1HqmnhcowxI7EczvJ0D0PidteMzAQ7XEd9OmNW6jerG/8tMhj+BNU8+H2fF6zkcN7IRJ0zEHyaQ0kqJ+K5HM7GxmIeKCzHlXbhmq+F65BLc6gutfVZNI6BxmeLcKvTioyTCrFr9w9ZJhc3dhA3N5cf3wic1DZO2trjt/MAlR5/oJgDsVuIctl7LxOIcttJm7mHcjyuKfBgRgXojm9b6LKs7/00pkON1H1ycPN9H5DpoO5zUWm47hNRqbfGx6YGemjMf7RqPrzjbXFI7IANfB4c2pDkGtqaV7d7Fxya/FqkMfF3s7wQLzeRVtaX0X150da9KT6UdTDgp/8SRW9xwaXsfI4i2zjee1Gtmc9jA/E2OJa4h1VgFp4uIaO9E9Dbbzbg9L3yNfektN4ZNyP0+vI+AMjBO/10JDa51AXn7+nHaYIG+pkTFEy5XMZ4V5G/imcLpn5eFzn9NjXCEH7LE/d6JeKGhnjqxf+W1Azb3Sg8iOybs1nErIewGcQsv7IEEFMrK4VHlF21MoTVXSi/GnUTttMHxKB6bw2sPG6x+sonxO8kqzGCKb304jgHaibyT30od5t1NHzdSmMQ962SlwGIfOWXNoj8wEGCdojTbrQ+C7qp+1TXeiQinqaPojACWb4GZet3GZxWchtrVGCuNJbD7qnoZYusWpBhwzU1hhfZ9VC7ueZBOdxe+TBw/Mpt+xihgnuCdCB9/JQU//y14AeWaixp2s46XN2WIfHcGTfhUdPZB9unODZssozRaK+nqmgvB45qLWpLztnD7/RPFbz+xePH/gtM1DwWiXFWVeizt6urbgWz1FzCyKc4ZXN73ce9/gl8Ejkd9tIwduVlOa5DvX2UQOl1UtG/V3l47gOyP+xiUNN5J/ny8G/gB9WMlLwajmFef6BuvusmcJC7qEOHy7jsI8EwDIcwgTAxhxaoYB9DBW8VEpZXptQf1NaKMvvJOrxnXqOmi1Bew6TJXidQ7gE44wVTCyiKN+/UIdTWynKtBp1OaWDg/6UYBiHZRJM4/C1BAsMFtzioSTP7ajHaU3U9AXqc/ZAx5yX4GsOuyRYzCFGgj+NFoxWkXk16vKTWirqZNMotE90yB0JfuJwTII1HP6QIMFwwZEKmon6fKeieko/RL2OMjkgRYIlHC5KsJVDvASnjZe81sqJRJ0+V1w15r9Qt6PNhcuXIJbDHQn2czgkwXXjBZOCFPMB6vVBP8VMRP1eailUtgQrOdyUYBeH/RJcNmBwq0kp3Qs0C/8wK6VGlobhamthnkgQzeGsBJs4/CnBcSMGR6mkZgpq91cqMe9DLY/zLsRNCX7gcEiClRx+l2CPIZNZQx3+51G/7W8q5EPU9I8LcVyCKRy2SjCXw0IJ/jBk8KBFFZYtqONZzZRRMlXT1nkUIlaC1znMluATDhESfGfM4FhV/Ih6fq+cKhahnv/pBYWcLkEjDh9J0JPDKxK8b9Ckl1PD66jrey1qaGST6PmzHPHivaGwbwtgL8rhJQmqc6grQUeDBlcpoWqaVFnP7l+/fvr69XvPMqXCr9SwB4XMO7th7rR3Xq5fJSjQCv9oDaxQv33ftz+bu+nkE3n2+0Gh6whwHjgWt/FLNnPwSOOX72/UYGcFeB5DYTNPr/9+ZK8WlfzgRX0rNnl56Dexx9OksXVWQTcUMHvnt2819ATnFm/z/o/bnwpyzB8Kb3rIbx4LOMNvPbDcyu8IGDZnzPL9hILm7P/prToWcGqVsKi/0gTB+yUVcICbLTGqqw+QrT5kznGbCGdKgCNj+YXxmM3vYx4R/L7VjddAaL/AkKpN2rw5ac6mkzli4CDx+tqlsB2L6uYLND1aTdmVIwVuN4vXHXmfj6wE5IPCom+zu1oGHPoeu7wSPHrxq8kjlF9nF+mFrY3f//m4TYRrVuHKJaOIBXtGlwXa/m+uy5IBJ4q3n1PK9/WBa9Nvb7C6WQEcG5DNLQ54ejzilghMz3K7b3G9/rFEWEwqP/xAuDiU8OLY0sDR781ddgmyawvXDPk+/NQfWDed8ZjNvarg6PXcBjGB+dzGc5nMbQa4aADg+fL6fG5JVtHCkX/uyvbAt8Z3T/jhYYtsv7J5PNoH2Hu9scvO4nEdcHg/Zql+XFowyyvLJSSfWUMXDgBKR9zghW9JViaZXU50BeDtNTyJHU4SrWwuE1t0cZCxZnQ2vZRG4HjTeV7/Brb7eC0Dtqt4bQfXDsASfpPVGZNgG5H58+nBwN/zvevcsmtJ9iXyPNUS5Cz9TSqxjJbgzKGscsrw6cXKXpdPAzurzi4fgHX4fUbYQ64hyNsWUwZktA5/zAsPW+Qy3eQR7Q2i+kdmUMrqBE71us1pLvA1neC0Dhhv5nQQDACAIjNsfLaLVfwJrx0NQM7iP+azwtFydUSO2cNA3KCoHDJ5vcDJrzF6FsQI2tr55FbnVD2Hj72FMQDQ6hIbe1Wp5iPnlOEmELXBEVZppcVawuFRI5C46kYi+a+C03fx+RBY/8bnX8D6Bz5LwSgA39l2Jvi1UI0KOMWVA2k9xmQwwiVS+aQxuFcbhO5zk4LtLXB+nWwuxzx4lXvG5ZofL/9bXB6XMg4AXstictcikmkv8k0fAhLXPMnI3lKoPkj/djUQ2/ffeU6zjwCKo5k8rwnMBzDJbwXM2xbwsPcFIwFaP+aBvUR6B/meqA4ye8+ys8HjFpkW0UurC5I3OOWsSUBzA49wYL+QRwSwj+QxC4wFqHyBxwqJAh7yifYCsQdmsMERIpkfkLP1Atm9owqcMg2IBl7gMA/4+xzksNbMz7KJw14vowFKXmSR7i1QFHItiADJ699i88RfohZIfgKI3/GeE74FsuXv0NvsIQCUuEzviC8I6HOI3oXiYDhAhVscsI88ZTK5ZPQB2YP2ccFIiaaR22mSD4K3O2weEG6SQu2gH4hY7T6180EgYqnL1O5UAgMCqj/gsFyeBcj0YShI772JS3pJgeKpZVYBFVoibY5ZbqYEde/R2l0UhKx0ldbxYBCy1ElaN6qCIQEt8xg8s0hTPY/J/bogv+UXJjhLHutzap+AInunO2KNBWjXvE1pvReIWe48pT3+IGbgQUqnSoNBAeMZYEtpfkOeN6qCCs0LmeRWFaclEr9oUQU0uF24OCtQD9pOxh5lBkGLrqET7QmCes2is6oIGBamPxhME6aRjcfNcqBG00IeGCPOBGpDQJ2ljxRmhzfQt0y30XjSA2Q1jc+jkfEmCPtOJo2cj0C1WgXFb9PbL8xGZPmgGqjSsoaHrZY0K4ldsSgEfDa8WIIfsGycSCG2JIhbYxeFzSEgbuU/KeyvA4YGvEIv31+UOjYWqY1AndbNLHCpNOeJvQ9K9fjlRRIDgKl10jNnnekCEptHPnTWtVdB5DdvOuveeyYwOGA7OXxZlJXIMbc9qNT3KIu8irL4FNDKLqYWMP3wn86WAL5FIpKdcS7cAkJ7Db/njFvDPUBoa/hVZzyK8AEV61btPHKRklTJZzEc1Fo6iQPOkqU50l4Nyv3in66UBtZFhyY4KOvXrmYQ3HvQXzbH5P3R1wMEt/bflO+Ygj9f9wI16xbMILdNkmjk+COottFzDtmlRQkn1ks9MPVvtyoC++pjt2QU5s6ywQEgfsVR61MK82jVe8Egfqlhqx8XJnntyPKgbO0KzqKWYpajbA6H7RblwGsccLookbRyvBUEkYiPaoKI1kZvfLly857ExPj1iyf0rgKqtNQLm7pi0+7ExJ0bln36Sg0TKNJca8Bnv2zcmZi4a1PMlIF1LaBy7YJoalhTju+Q4f2SoOA5HFKLSrKc1h5Q8ldP6sJ/6epXLTu1QWL4JDOwdQUVex1ngKMl2UfrSzVBWXCvgThqX4vxPjL8CtRcLY3BBZMgSbS6K+q/ejWsB7X1YpxkcMRDUfAeA+wiSA6tCu5x1mRiF6Voi/Rz6oGytzJYL0cAks42u8fBUmL5XkL8xmAyqLtcCr2CSmJUpXUO3OR6EsPaMpTOpXfcQ2EwnB5+I0YzWlvd5azPiL0kw2dI3tYcVG46RO+RVYqXaMW6y8E6Yu/LcJHeYlB7Yxs57CNFX1pL3eYmEPtKhJZIPr2M4mARvbVShNGa4zbXhtgyEebTGw+qD04hl1NciEG0ZrnNeefS2iGB51Nyt7yUB5PJ4Sgh3qW1yG0OjtA6LUEYkn8X1O/3gNwRIYbRWuU+t4BWkgSbyV320AD4iBzWluFdWhvc5ybRei5A8TxyYaCDXjfJfSnDW7QOuc+9Rgs9+b2D1C+atQBGkjsnwxu0nrjPNSNWit8mcu+CHnrdp4a1RBhICwPd5oKI1WBXJJvaXU9NgMnkJovQh1gLtznIoFWf3etIfQLoYkAqteMidCQ2zn3uLq3G7FZTywjQBphJDStL0IjYFve5y7RacvNOp7YA9LGandp4CaoSy7C6zZ2k1Y7by0g9VCMgntpeCYKJYU+3uQRaXbjNopYAOvkqtfwAATxsxDa6zW2n1Z3bJWpDtMLjHjHsLwA8IlYQ4i63kVZnZpWQeLqvVsB31OZLcJoYfusut41WO2YjqS0DvaxL7YYE26nlVnOT20+rFbM/qHXVDDhFDKsL8As1XOsmd5xWM14eqcTuWXRjArXRAnxBDru5x12iVYdXWyQ+A3SznI3YJgGG0HtUzi0uiVZFXpOptdYOOEjsmZlfS3p4yNMd7hmt4ry2Ento1o+JxLAevxIMcI4bnB/StrIypxD7GfSzGrUP+MEjBhjl/laXViawbojEX9IQOEtspQDbOeD3bm+9ad3kNZpYhpeO/ItYkgDfssDvzG5uo2kd5bWa2CbQ0Q7EMITfmzxwazH3th9obeZ1l9jHWmJNJzaEX3UmeKG6W1scrWWsKiDxWloCm4jN5gf3mWDKEDc202NaX7LqR+wO6OlHxBIEWM0FcUtZt7XqSHsoq0hiyzSlJrHnFn6j+ODjge5q4cS6sdpE7D1NMT2ihbX51WKEuL2Oe9p8YjVZ3SVWQ1PgD2KD+cEVTpgfHeyOdpZWvienUkj7sUlXJhCbIcCPrBCTP/FxO6uOtC8B557E1oKutiS2W4BOzBAfRfi4mU0mtoHVZGLjtMUzi1aKiZ/HI26I98f4uJUdJ/Ytq1+JtdUWOEQLy/GDn/ghPpga7D5WBYkPYnWclq2ovswj1lWAJhIg5sTUcxf7glptTqYMWhdBX4cSGy0AnBMB0b6th9kdzPsBsedmThWR9kqNaURsrgQfCoGId6Mqun+NQOIHgHN3YhM0xppNa6cEvsliINriwzzcu8xXqP3A6mNi3TUGTtK6LwHMEAQRkyKr6UmJlz75eVvixTs3zhzc9N3Qlp6q8O/y4bw/j164ffPc4S0zR7TzUYVvhxE/bTl87tbt80e3zhnVuaiR8ipSf4XVfGLldWYVLSwmQUiuKIh4cFQJzTC1/TbRhoV8vnV8iHxNvjqYj4XM3jm5lnx1p+7OwULmJ0Q2NEo8L1Ozl2S1k1a6SWemEmshAfwsDWJBfLivPpSdcgUda9sxxEuyEmPPoIMPvF9EMv+RR9DBJz8ONESmIvVLwPoGrSOgs68Se02ECjniIGLK0h5WLagwKwud+CjCR6qgyFR04tPIAKmKRCSjEzNmlTI+Kj4nN4eVJY/WL1pTh9hEEWCWRIj4dFE3D9UVnZmLTr47RCSvyOfo5KejzRJZxj5DJ6dP8TQ6NiD5PqzKI+0IrbHm0ZorQ+ATmRAxOaaPVWW9byPBPbXkaXcBCZ5oKk/DI0jwSmdjYxSSzy3Cqg2xgVoDN2jFyQAjxULE5JgwP0X5LEWameHCeHxvR5J5Y02ymD4tQJL26RYDo1kOvZ3AehCxJnqzk9YZISzHBUPEjN8HBSio4lEkG+MjSfAOJLuhmCT+a5HsntKGReANpP8hr8+IFdebxbTShICGuaIhYu62EWUU0zwZCe8LkKPWHSR8prQc5S8g4ZvVDAqveKRvK8frZ1rpoLdTaGGAEDBNOkS0JUZWV0j7NCR9PFiKRo+R9I2qUlS6hqQfhhoS1o3I8ADw3krrtOa8SSxUCo9j8v392Kc1FNE5G4mfLyFDoxQknlRRhsr3kHhyfQPCuh45jmF2gtZGzWlFrLsUEJKsBEQ8H9VWAXVTkPxhXwnK30Hy5wMlKHEJyd+rYDh4xSLHvJLM7tKarzkhxIaIAf3sikDEK9PrCVfuDjKMNfELPI8Md3vy805Ahqf9DYayh5DlRmCeS2ua5njZaY2TA75RByKemVxZMPMuZDmO32pk+R2/OchyjbHQ8h7yHMCsGNIepjmQTOsbQczrVIKI5yPKSPUF8sxrzm0E8rT34vaynQeGGwjm0TnI856VWQ1ivXTnHK0lgoDPIbUgFsS/V0yilvlM8JI3rxqZTPBBcV4lnyDTjEqGQbVdyPVzYN6GWGPd2UFrkyQQfFkxiJi9sqtZGvMRZDuF1xZkO4fXImS7ziDw/DwHueaW4dafWHnd+ZXWYVGg/DXlIOLdqKqyDEe+mSGc+iLfglBOjW18sIcR4DniFvKNAe7DiXnrzmxaN2SBCtcVhGhLGO4nR5HHjDCGkeUKI4zntA8ZnzW7fNbwa8jYXo9dBK1s0N1IWinCQKUrKkLE1OhGUnyCnAuq8nkDWbfk0xZZ93PxakU9RNYbgf3XtO5rzxha+dJAiUNqQsTEcKsE1luscA6f47zW8onjdcSVK/fBEeTeit9PtM5pz1u00FsaKLpDVYj3ppXi9ybyzizGpRPytlXmUtPOC1u7aD5doxLtyH4j8F9Ca7/29CYWLA54zFIWYm5sV25/MsOhXJYxw6lcvkbm812voE5jl5/KQwltDQRYQ2uz9rQhVlUegFH5ykLEI2FmTsH53HYy8U7ldpHLFW7JnrrxY5jUw0dEfPbDij1XslDOFSDgVlqrtacRsVCJoMM9hSFefNvK50PkbivD41VkH8qjBbLvqRsanRkiwX5aS7WnJrE2IkHQFpUh3hrjw2UjOxzCI5rfRB7T+M00bKaAhKdozdWeCsR6yASmiFyVId4b68fC/JTfIh6X+G3msYPfSaPmurcIV2l9rz3FiQ0UCqD+CaUhPvnUh0FD5H+VRWnkn+7BwTOTn62EQdMdRLxFK1J7fIi9KRZYv8xTGmLSW2ZyQwXAYhx6CYC1OISigF2MmSUg411aEdoDNlrhcgHU2KE2xOOdqEVJ0IzDWAn6cgiT4AND5n6gEA9pjdWfXFrvSQam8MdqQ4yvT2u9BIM5zJdgAocpEvxoxNh7gZBPaX2sP5m0hosGUGJ2ntowf34wpVMSfM5hmwTzOSyWYKMRMxOkTKP1of6k0/pQOIAasWpDTBljpnNLghkcDkuwisNaCfYaMKe8xcikNVJ/ntEaIx5A50NqQ9xXh8xTCRZyOCdBHIdtEpwwXp5VAzFzaQ3Tn8e0xisAoO8ZtWHuFA8iORKs4nBLgt0cEiS4YrjYeoKcNlrv6s8DWp8qAcxhiUpDPFKbRp4EazgkSbCPw0EJrhsuk8GwuE/rMzUAQLcdSsOsMSYKzyRYzOGCBFs4/CXBKaNlKUiaR2uY/jymNUEZAA1jChSGuKkEgSQJZnI4KsFqDusl2G+w7PYUJZPWCP1JpvWJQgBqLs5VGCa1dd45Cb7ksEOChRx+kWCLsXLUH0RNozVKf9JofagUgDLTktSF+R85bbME73BYLMFnHCIlmGuonC0BsibT+lh/MmmNUAyAuWtsgaoQf/Vx0o8StOEQIcFADoMlGGOkXCoNwj6iNVZ/cmi9pxwAqPrdE1XhwWDnfCBBMIdXJGjAoZkELxsoF8qCtHdpTdKfAlrhKgLwfuuAovBqVae0EuAecKwsQLYXB788AcoaJyeCQNzbtL7QHi+kPUhNABAScU1J+LSVM6zP+a1kAbf47QKWB/hdBsNkRwDIe43Wt9oTSCxMWQDmjsvSFYQZ7Z0Af/F7n0cMv895/Jvfz4bJL1YQ+Ayt2dpTjlhPhQGAd1hcvnIws4sTJvGrwuNtfm14dOH3mkFim2wCiQ/QWqw91Ym1UxsAlJ1wTDWY2cVxIXZuR4Cnfxa3JDMPywNuz/2MkbT+IPM2Wr9pTyixhsoDgJAxCXalYFYbh0ECt0+YwFpuUcD0J24rwBA5XR2E/p3WJu1pRay6DgBApTEJKsGndRw2kll+WS79uTXg0pTby4ZIjC9IvYzWXu3pSayUJgBArWln1YFJ5R3l+4TXCuBqucprB7BN4HXRbIA87g9yz6Z1VnuGEPPVBwCoMibBrgg85ecgiOTVkA18wKsbnz683gHjI64sCD6d1l3t+YhWgUkrACA4PC5XCbjO5KCg55w2A1+fB5yOA1/TWU63PQ2PB6+D6J/RytSeL2ilgoYWD1+fqQD81EEwhVF+fUYwlFMnRtCV0yAwOGwxJUD2kbTQS3dm0rqtIwDg2395sngF7RzkeZnPT8DZfJjPGmC9kU+CyeDYGQrSv0qsjO4sp3VMUwDA0nbWXdnwTnHHQG82D4qxguYFXDIq8qqaySWvIRgaF8NA/vbEQnVnO60t+vL3upEXJMN1DoJoJvZewPxLLuHAfDiXT8HIODvYAgqsRayH7pyhtUxvAKDe5+fkwkEO8j7N43vgbt7NYw2wX81jj8XAOB5uBiUWJ/au7jyh9a32AEDdyItSPQl2DNRN5ZDgyQ4q3udw3p9f4GUOd8qAYZHQB1RpyqM1WXOsNloTdAgA6kZeFgmXOQg65tC7FgwCNs6gdz8EBKz8kF56KBgUKQsagULv05qjORWQdrgmAUCzWY8FsndwEITbqT2sAiL2zKOW3hhEbP6cWm43MCRsCcP9QKmnaa3VnGbEeuoTgKVrTKY0eNLsIBiST+t+PRCyVxatZ61AyObJtDJ7gBFx44sQUO1ftBI1ZyCxJjoFAAHh8XZZcIijoG82pRtVQcwOaZQeNAAx692nlNoWjIfzUW1NoN4ltJ5qziRiQZoFADV/eCrKLW9HQdv7dOKDQNDQq3SOVgRBq5ykc7EOGAxZ8WPKgZo/p4X+erOAVibouFdYvF0OHOUwCI4nYo+ygKj+a6nE+ICo3gupbCgGRkMDUPbbxBrozTZaF7QMAGrPTBXjltVh4DExk8LlTiCtafgzCnf6g7iv3afw9F0TGA5L1dWRWD+9uUzrT10DKDL8khD4tuMAKm9xWvaX3iBw6VV2Z+XPLgoCF1tQ4Cz78mBQrwblVVJWZWLjtMaSTSta3wAsAw/IcMHkBIDWcU7JjS4PQtePtTvDFlsDhK4Sne8Me1xjULEG4TxlWQtoLdSaakh7ss4BQMtNdgGwk1MA2sRkOirp63IgeMPoVEc9nFENBK/x02NHPZtfH9RM691AAadwyC6rKrhDa7/W9CE2WPMAGsTa+a12EoD/0A2phbuxsJsZhPcZvOZJ4e4t72sF4T1fWXG/cI9/e8MbVE3rNRDQ7wkDnKGsfbSStWYSsbbaBxAayy6vjLMAwKPlmJ93301DRNuzy3HfvVsV1GhuPGrujtspiGh/dn3bj8NrgyLrjpi57cazv6Xcip/zQUMTKFw58DmHzJKqWkwLS+rML8SCXACAtseY4QQC/7mYLyjZvwgouYg/aKB6AlIY4HRVTSDWQWeO0HoKrqEp/AGvY4SMd/XAdA5pgYrqTexjjTFn0NrvIgD4ReZwwmpuBCUyGOA0RVUjtkxj6iDthS4DQN1ETp+5EcAPHJKLqsmSTeu0xrxFbJwLAdav8vkcdSconcUAJ6gJztDK99GXH4m97EoAND3PxhbkRgBzOTz0UVMsLWyuL3uJVXYtwHsFF3zdnaBCLgMcraZIYh9oiyWNVqbZxQBThI3JUncCWMQhyVNJ/Ymt0JaGSPsAuJ790nncdiuoks8AhympIrFb2jKa2BwXBFqlscBy7gQQw+G6h4rgMS2soCu/EXvPFYFWaSwGuBXUsjHAwUraTuxNXUkiFuqSQKs0Dt+5FUAshwtmFX1DbJ6mVETaOVbXBHrYGOx1Lwi1M8BXVRRG7JKmvEfsKLiqUxg8dS+AjRxOmhRUlRhW0pPfiP3ssph+p4cl3Qsa2xlgTwWZnhIbpiXmJ8SGuSzgf5deJ/cC2M7hkIJgI7HVWtIUidd0XeB1eh+6GbTmgJ0VNJHYU4uOTCb22OTCwE5yM9wMYA+HnQpqRQzb6cgRYuvBla2dTy3W3aAbB2yjHmsmsRkaUtZObKxLA2upHXI3gAMcNqsHdhO7qSGjkHgz16Y9tbtuB705YFP1fE0MQ/Ujnthzq2sDJ4gVWNwNIJHDWvV0o/aldgTmEYsHF3cUMSzhdjCQg72ecnyyiF016cYIJB7h6lSgVtXtwHSWAa5QDvxFDFvoxn5qoa4OXCDW1O0ABnMoqK6c8dRma0aIndgDk8vzA7Fu7geWywxwkXLqUnts1YtpSHw5uLz9iQ10P4ChHPJCVANJxLCvVpiuUBvs+tQiNsgNwXqTAc5RzmJqW7WiGxK3lXR9rHm03nZDgFEcssuqJoyavbpOrKeWCC7wRVrvuyN43WWA36mmaDYx/FYjyuRR+8IV2kZrlDsCjOPwPFgxsIXaYy99+AKp13eFfqf1sVuC7yMG+JVqhlLDYdrg/YDaFXCFl9Ea5ZYAn3FILaaYEvnULpt1YRRSn+4SzaY1zD3B/xkDnKwY2EkNX9EEy1VyjV2iKFrvuCdAJIenRRTzIbmjmvAmUr9pcolm0RrkplAslQGOU0xZGzXsogXmM+RmgEu8mFaYmwJ8w+GBj1pgL7nDWjAIyTd3jVbT6u6uEJTBAD9QzHvksK8GeFwidxlc4zhaLdwVYCaH255q8c8kd9asvhFIPsJF2kWrtttCmSwG+K5a4Fdy+Jby/O6SKyjvIl2iVdptAeZzuGZRS3d6D/1V928kvx1cY0sOLR/3hYq5DPANtZiTyGGU4qpm0xssmrdGhCDpFHBfgKUczpuVAlH0cmuqLQ7Jp/lKVuzYBH3oQuucO0PVfAbYXy3VbORwm0llfZH+fBA88Djah2rDcFrx7gywksMJk1JgKz18V2EBdxjUFyzgKCIWvK4L0bR+cWuobWOAL6mlF4PU8upahvR3gtzFjuHfc3towmVa090aYB2Hg2oxXaaHm5XV1c5ggFwBR/Cfc/prQRmk/a57Q0M7A+ygFBjPAN9XVPBdpJ/kIVbAYfzPuQN1YBCxNu4NsJnDX2op9pxBdqiSTJuQ4WSQOuAwvmj+YA1YRKyk03wbvTHt2+hVy+dFjetdzaIOr/phk6Oif41ZEDXplZpWdVhrD4iIWrDi15+jPhtYz9MYaMEBWysFFjLA874qikCG2SWl8j+IL24bpjyvZFqp4FTfnjNO2/GFs+I/bWqSz6vLN0cL8IVz933RxiKfR7vIhDx84fzD0zt5un6wg8NGtdS0McBlCmqXz2EBCF30IBbWHmlS3ECkfcgZTaLT0aFJUVVkqxv1GB16f1YD2WpG3kaHPotu7PJ15GBvrBSI5YBjlBPyCBkWVBPKbw86cLmn2rYQm+sw82tn0fG2tQ3k6nkYnbittVztdqATE7q7eLCPAa5RS6idQ0EvxRQ5jRxXgMx+u9GhO4uprFQ+saGO6ncOnWtfV02mTkfRydsbytR0Fzr5QFvXrgcHW12lwJ8cMKWWUswbkaO9nkxF9qGDz1VV2DdIvLFjysSi87MjveQJjLaj0/NnFZHHN6oAnW6PCXLl4CgDXK6W9iwwKUQhpgXIciOI7LcXHZ7SS1llM4nlejokPB1Jnq0jTZ8nSPJGC2naJSHJhz1cuX4cCqopBfazwCul1BGFPFuL5LsLnWiPMivqZyR+EBzoNQupZrwhiiXShkTzI2QZnodE7VFm1810mgH+rJYOPPBUMVVMRp5bQWLf3ejcLYFKqpZHLcoBQUeQ8HcmOYpsR8LLPOTwXIWE43xdNnidQ15FpUA8DzxQTA0RyNPWUCLfnejs2x0UZPoLqfcsXOkzSHq5hxTFDiDpTd5SeP2BpPcFuGzmcwzwJ7U0tfPAE8EqiECmK0Fgnx3ofPssT+WMQ+oFAYWqcB2J/2aRocQpJP6Xtww+u5F4YjFXDcI5ZJdRCvzOBC+WE880A5nmVRXIJx5JJtZSTIMcckehsP6nkfzPInjvR/KxZgnM65D8Xi9XzXKFAX6jlhr5TPBuY+G8VyDXOSCvz19INHO8h0r8ziH5yMJ4xiPD8QKYf0eGP0gwCxmuNrtoMJxDRpBSYCEXzOgnWpkjyDWjtDyem5HuqWbqsG5F+o0LMx852rrx+xxZDuE3DFlOctWstxhgpFrKpnPBgvEmuZrdRbbTQFzPOKScP6uIIsyrkf59UyF62Vngo9Lc2uTzyKjBrVo6j/yWLhp8xCE1QCkwiQ3ixuJCmcbkItvr3uJ4bUXiNwYqwRSNDBfCi5d7ikw3Mwu4hUyPePDyPIlMrxZx0bzvMcAItXhe5INJbUUqEYeMe4O0XluQ/r4m8nktR47dC7EG2YbxmoVsP+Y1Cdl+46LBRA6PfJUC3Rhh/tde8vS9i4w3g7Rem5GjbVlZ4UomIMcHlhdra+eT5MepTh6fZ8GcSqXyya3povk9ZoBj1AJrGSFe7SRMqRjknFNDGs8NyDQ3uqxk9W8iy5/ghc2nkXEkp3hkHM3pF2Qc56LBVA53vNRSMZMT2hYECeIx8hmy/hqEtW5AvpmzykhlHp6BPJu92ADknBbApwVyzqvIp3I+J2ziovmnMMDhaoEJrBBTJ3pJ0fM88r7sI4znBmT9/IeKIoUeQ6bn4cUPssKJfDaywh/5zEPWq100+JrDdQ+1WA7xQrwR7iFBm3hkbmsDslrXI/f81S3E8f93HnId/WLtkfc9K5daNl4ZxbgEZfIqqOKiFU9ngOFqgZpZzBBvjfHh1jYO2c8AWa3rUMKDr3tJ4j81Gdmm+7/YL8ywN5coZP4+l9HIPNJFg+84XDSrBSaxQ3zwRXlGRd4/ifyv+MpiXYtCPp0VKkXA1GRkPA9e2DuV2yomppvcdnM5xO2qyUUrlcUAwxRjOcIPsWBjLwuPpj+no4C2tiCqRywKmji6DD9Th+XPkbOt9ou9htyfF+HRHrnbyvOoYueGzVw0mM3hlEktUCdbAER8srC7B7Wm31xFGWeCrKtQVtv+sSGsKk29hszXwosvZ4e9eXzLDt/n8RGyj3TVyucwwD6KgVEyIOLTle9VJFNi4IKbKOVJb2E+FAYR7ce+7uDJwqvrD+eRvb1RIW7x+57HYX6/8ljLb7erBtEcjqgG1krx9yuLP2ju7SSPBu/MPm5DOTNqgLTfi/P351vGNvciVazLpE3PUcLN8OKVkP8xFkXy+N1nYXrEL8fHVauSzwC7qqbYDUH+nnfq92+GdaxatFB+IW3f/nrVsSwUdgiIa46V6O+5R+e909DXeV61ek747aodhbQ3L8QbAhT4cOiIAoZwqI4CtnLVYDmH3aqBFnmy/OecOycPxMf/HhsbH7//RFIWyrwMBPZOEOof7Uk75n/yZoc6xQvjWz608+ujPl+6J8mOoq6GQkYKgPU4jJSgG4feErzjslUrYIDtVAMTZVLilaISQdAVwV4w59n96xcSE09cv3772bMsFDqncmFWSvAKhxkSjOIwVoLpLhus5vCnckzrNC2tDshc7b4C1Pg9FPaIBJM4bJRgJod5EsS6bnVtDLCZasAnUctsfUDqOo9cggfFCnVdgu84HJBgBYc1Euxy3WADhz+UAyGPdGwiyF3/qSvwOhT6kQTzOZyW4A8OWyQ46sI1sjOw11cOtMnRrxiQvGGy/m2FwmdKsILDdQl2cNgrwUUXDv5kgKvUA+9o10Ev0aBluu5lVnZAgQS/c7grQQKHwxLcdOVacSioqR74TrOulgLh22Vo3khwYJoEyzhclmAbh50SnHXlYDcDXKog02KtelQdxG/6WOvWgyPvSTCbw3EJfuewUYKDLl0XDnmV1AOWdRqV2hAUWDtJ4+6WcMglCaZz2CPBUg6/SrDdpYMEBjhPQeCzV5uy2oESK13RtoKO4NCdEozisFKCrzh8K8ES164Xh5xyCgL/E5pU8AoostQJXRsLjl0gQVcOkRK8xWGYBJ+6dnCMAc5QEZQ8rUV5r4IyA/bo2XJw8DgJKnIYJEELDu0lGODiDeCQGawiCDymQbn9QaEe83TsuI+jXhIgzcwhVABbAIcguwC1XDzTGQb4LyVBsSPak9MX1DquQLuulwFHF83ntxk4mp/xOw4sz/N7ZHLx4E0OaYFKgoBDmpPZDVT7UqpmPa4Jjj/CbyIL2MhvBo95/FaDq2e5xACnqQn892pNakdQb43LWpXWCJz4Lb+mPMby68MjjN9Ilw/e5ZBcVE3gtVJj7jUCFQdt16iMtuDM5uxumXhUtHNL8+Hh95xbQWnXz3qDAU5QFJgiteVsBVCzaUyeLqW2Bude5jYdmO7nthSY/sZtO7h+MJLDQx9FAQzL15P4AFB285t6lNICnPwFt/pcRnLrzqU3t3eNAK+7DHC0sqDvcx1ZYgWFB23RoQeh4Oxyubz2AteiKbwumblYrvJ66mcEwCcckjyVBbXOa0d+BKjdNDFXe86EgPOX8urJBv7NayiwHcVrGhgC3vcZ4FB1QdHfNeNOK1B+3aOa81cAEKxp43TGxKdkFqe7nny8H3B6XsIYgAgO1zzUBaYxeTqxpxRooMeUHJ2Z4wEkf+HUGxhHcXofGH/E6QswCPyeMMDBCgPo8kgbbNMtoId1j2hLxptAtFQqn+3AuchdPsctnCyn+Nz2NQrgCw4XzCqD4PWacKsTaKPHZ9l6crYWkB3HJqcGKxjExt4aWHe0sxkAhkFACgMcoDSAsGc6EBsIOln5Dw2xL/QFuuZdXMYD89Vcvgfmc7nEgnEA/+Zw0qQ2CNmlvEf9QTc7n9WN+32AdPlkHttN3Ird4nHck5vXKR43AoyEEhkMsKfiwPxJutpWBoN+WsekakVscSD+ip3DvVLAvl0eh9QawL5uOoecFmAkwAwOh1QHUCZGYVe6g56WXpyvDRe7Av1JDNIbgYBv2unldQMBe+TTsw8BY6F0FgPsrDyAjucVlRnpBdpaKbpACzIjvYDjbHIFfUDEaeTsb4OIQ+lNAoMB5nHYqQHgNTVDQfbfK4DW1ltvV54tphzwtCwmljsQhPyGmO0DEHKMndiXYDhUyGWAbTQAICgqWzUJ7UB7m25Vm319XWBr+oFUZg8QM8JOqeAdEHNIPiX7eDAeYDGHzVoAUDG6QCVnwkCLG/+ap67tzYD1xAI691qBoO9m03n2MgjaL41O5mAwIqrmM8CmegBQf4NdFecGmkCXS0cmK8kW1wK4t39AZW8ZELXRdSonq4Ko1c9QudoADAlYwWGtLgBUm5WlgoQ+JtDpIh9fV87z2ZVBwHKbSeR84QHCFl9JomCmNwjrN89Gwf5LABgUtW0M7PW0AaBkZLJwtriWoN3mrjGZKrkQUQKE7JPkvH11QOCOl5x3qjkI3DjReVe7gXq1CX5ngCs0AqDI6NOC3Y8KAT0vPvqEIjKWtABB/acmO+f0ABOI7PPJfedcfdsCIluH3nDOnQ+9wMAItTMoqK4TAFA36qlIBfFhVtD4hrPui5f9x+u+IKz/5JsOs+8bYAKxfT6+6LjEtz1AbOt7Jxx3/kMvULI+wSYGuEgzAHzDdxVIc3ZSadB9c+vvrwuWGfd2AEhs7hzz1BGXvq4GwreKfuCImz/WB+EbzkpyxP35zUHVGtWcQ16IbgBAifC4HDnOR9YGF7FuRIJIN6LDioDc5iYR6y7k/ae0o8verQAqNNUfG3sm5z89P/7ryGqgxBqjVp3I/E85p9aMqQsKD42i3EBtMC6KYQcNAYCAwWufCZC9Y3R5cCnLhy+/I8q9lSNqggKtlZp06tOjTWgZUKulYuMOvXq2a1jeBEo1lW/Urmev9o0rWOC/4s11h8emMipIjOrqDa5o9RFrHkqQd3LJe9Xgv6Na20asuWqnd3dTZI8i4MpW6P/Vlod80o4s/qC5N/y31oCO41YcTSaSfjJ2co+S4BqX6/vp4j13SWVd2DZ/dNfy8N9mizd7Y8qSuEPX0h3y/NaRLcsj32pVElxv3wYDJvy44s+Td3Mclff4wr5187/86JUmwfDfdr3KNWzSsWvPsLBhYWG9unZu0qiCDxiC/lUaNmnT9aWwsKGDw8LCenft2qJ+lUBPUCNWUDggliEAAPDIAJ0BKrAEQAE+MRiKQ6IhoRQcnGQgAwSzt2yk9/y+xZcFtYE9N1LP69uuPoAeMrEH8U/ATzmu664+D/1a/rX0lUz0hsI/xz+LfgJ+CXnP/nP4AfoB0gH8K/g/4CfgX0LJ/nO/6fOas/Zf4X+An7//wi+Tfg79/3f8F4KMm+Iv3X90/v/69+Q7mH9R/ZfPD2Odpef75R/Dfpr2kf5L1C/sD9g/gF/Xz1uf7z1F/vJ6iP2l/dT3nv9r+4/u//znqAf0//Jf//sH/3a9gD+W/4z/4evh+7/wl/2z/u/uv7RH/99gD/7eoB/9PUA9Ufrz/d/wo/Db8YeRf5D8M/fOxPGEuFDhvetIBwn/j2sX/Tv+NsKfz38/PgA/hfTv9AD9pxiFWIz/tCCn7mJgUTlKj+adeYZeUDWPUxm2PiM46VzwwEAB1VLf9qgY1AxYQzdmp1W9EREREO/PvjJrQvfYOhRRSzJLhxD/tEzmZmZmFaU/ds7ueHF0r4nnTitTt4mokS5ywRu+1/YpoLyhFY9BEMtoc2YVt799+RD+6CREREQ69QacG1wBmZktrkaLQAABE+iNd545u7u4RrAaRuzMzNRLaacTqnuVP+hTZ0aqdbAohd02dG5RoHu7u7u7s8zLXScJXd2ZzdVVVVUpSc7gGltHd260rr9gqqqqqgUIkeH9IMkSm0bO5maCE6U/a6EMUmUfz0zLTyY1C12S+ZLSbVa1FlTb/7Ss9d2+ndQNxhq+KzCoMsP/JgbTiRDV7OHJ5qsHnSr3NEI6a8wT8qe1Uux5ogLzraIq5p5aX72tATUceFu0VVSgFpooqqkBVwTdzJHKFHp1NC+Y7SLI44ZzJ35Ox+maZmmWSduzVERDNBa7zo/6guqkBbXWY9GZxc8N2eJGxseP9F9lr3H//+wccziz//0WXTS7GeO8VDH93dZro8JvCfdZOgVIPScAnrd3RmcVDu7u7u7u7u7u7u7u7ps6Txrd3d0X1w6uWbHEMo03mZmV8Qvi7FGeOkQ0qYsU3Dd3d3c+RXo27ovFSsTTl5N3caharKWzMzMkgfM5BmZjvwkLalwGsEb6jw5VgLP//9Fb8BoMxJowCZN9lxHZoR36lAOzMzE+RKObsjDoPP9EwKcaN40ghor9k3dzE0dRxu7kFn4jD/HeL3W5rHOjcqqoxvC9jPFeuzOO7vhohbuXZ0QvXbZkCa5NzXquF0ME0KV5zF3dNnTFK5hV0WLTkgLtBguoxGFkxAYS7u7uxlI/mM9H5Ot3tF5DDNGWSc7egIeB9d3cOrmEpxzmhhoX13JHm8zLiOjcqqqqokIaQwsmSUlVVVVPxEDKSqf30TwvnV/17DCzeZlr48sxq+chxhW0Xu2+PKXqkSQqV+83Wh+IXBTCiqqUAszMzMxxf4VxHc+GHt7IgjHmZmZk6ITDfWgTu7sawutui0+m1vhBkuHbbVWSxk9484CjXuWRfqi68B84P9uJq7u6bOhNCZLSaybrrU1VVDx2bL0VVVVRoi3WVBIG7u7u6Casmtd6qOxnw7N3d3d3d3d3d3d3d2whaaKKiVGO2MGVVFzKTsQqYqLFC6a2VVVRK0Ex32CoKuBBf1VVVVVNi52/dDJptuPbd3d3d3d3d3d3d2msbATeWW6T45S/qbCREMk1UhVyaRo+GiqqolRjt0JiH1szMzLCU5R9PAyVCrnVncPlbgGSpB4dzlxbZnG/6u7u01jYCbzKv0YwrV/1/zplVT6NUyLQu0ZGz/8EjEk+6TFTMqIJRN5rjMtB7OUsIudcBiQ39Z9u0TEw6QxHgwK0ShMqkqqhgKCcWf3+4ZzUYDKU0VTKqEnFYj6ZyA3V8h6VoOESOcWyNePDGwunddhDTzU28p2zgl996d0IJC6bRWZrRu5gy8dnsHG27TWNgFmZk9gxEfERtZ4MqqHhl4uxSQ0ImUqSI3/p0Q2pdeCWneQpHVswswQqt/Bg/s8ePaMtL2JBGqsZiWcXxmXzN7pwlVPdtpLpHukDylFhmXLDn3OQw00zMzL/2WZlhhLnI8OKnkREQ/6Qwi5QzTf5GlYQr+nlgi7srM6DVID5p+Sft9I2Dn7pvhmZlp5vtnRVVUe3dlf710zMqXn6KLw40QCxOOM0zMzLRyflExcDIR7r50ZSuEpXtxfwAP73r9iQkNyIsg139QMEm2vev5ATk3VfLg1CziMpCTLxvggixt7NhDLEFzdqk+8QPXQbtKFuYZIUqO5vbayj73f/65KbU9gggzTfyvvvk8C+CIFIcz+QeLHSEEGh/Di/sM7uO4nFoHDq4NX4RWtd78mVymdTEiNXm31HwEOWJPpgVoH5LLM8zDMa+/lM5g+XOeUvZkiybVxRN4kx5drqwwCljbsVw7Sp3nlXshz19WMc/nMjtSCxGLG3s17xmPiNzUmzSaMN79mGiFHSJGxmBlQQaqys/V5zs4f5/HjGE7Evcgvu3u1yeoudgsq7alqRqFk+hhYtTNcJ/3GTex1sbuGGp4D6gJJbG7eKsjJCr6AD1Fg0Ywnb65P1YqG3rkYROHLXNdnEbT0EWP9eAO73zdwvEMZ/SU9fRaBzavsoqKQNvtlD2ZxvBTP8iS4LvRGwTgJMmbTK2b8aSVAY//6EcfiaCJXDQ+Qx1FOmiuZ2CAz5ITaTP6pX9INnoXrtHqlFnH2I+rUHgDpCZl4cXfydq4qeJiRskuIh5UphFzmpZ+aLvWWpTcxxAAYbgZWNX1iLXUQJGsxEyB22UCDKeeO+xrgjasJlZPx90RS5vF9Me8D/J+dpQgWP/9puujVP7Dt9l4egf5ijHLzQOfkm8wILnUcaFe8ZHNdLtt0aKNelhrCDdGgx8WWlDe4vcRvM9VJH+naHJQ1C0scVdp8mLP7wg/pQWXrcgeQgV89j13qSmuzH1i7gmsh1TWsAALYtKDudrnEagvFNf67sfy6IN2C1634DU+lI1wnwkEuQgmXn+i9gZbMihZfqti6UF0NdM7B4CnH6S9QrUNUuuB1+uApggwsAVKPY7S51ucAOEkhIqsLNi+qu7hh2Ywji5XMPU9+w5RN9KOHgBUWk/UdKCnOAvo7H4c6ewBzSlUXX2TiPT6+CTNjQxTfoGCTzDbU+LguseMfL1CyjoM67qOgAAACfNrOmel+uzQQV7IT9Y19f/HWhgqhqK75uUKuPNbQFqmsBzMIipDtFBt0QQHQV6Ns0k/Jg29KwfUb29zKNHft+iWE+AANv9EaP8xkT4G7s0oxNi1TLRIqkRlZoN0tC4io4UX3OWh6/cnwfQi5/XxzLREFA5enWjYjw9ouBWjprTrQfjEAACGVw/cs3Ad5kzQsiJ58dMPgUKErAG5u7tP+h+B8lQ1kJl/Qig8zTf8qGn1sKsUTTbZSdHFpjmMVtBy7BDrBif6AWaCNLcvk2scBMhUQIBvzR9tPZ5TGmAAAAAB3TNroO9p0B1dc2tMe4a/i42+OsJAAm7lHPWKacymuAOzs5c11RChFWI0H1OsJiXrvTTTT3X1PQEgpSsG3c36nLfxiAAaMqSKpEYfDzsvgXCbG/yHOxgTekkeEN07CW9zPYE9lkoh7cbDxESa6DW1+0S56++5EkRRYVxD8zVHgUD+98IpDtHQ+eAB3eTzr4KK33PFB68MhTqOroNt9CDBBoPhxqI1rUU/gWowqE0ozClRiSi1lMrpSfq1NEXWE9sDbaTHz0daT3WkM/1jqkxg2s3on5uZv3wcd9CL8eNoHZDKvzTCcRmUnE73glMzLHIOxJ40CnApTE/LwKgtuQ7COXFcVlSkxmzzCagtTvkg85D6DkTpaNno2mWEGM3Y8F4QbEeFhNf7J6ObchYeytU0fBO3HBEf0/xRfjxxB+ou62Vfg6S+S1MADK8EWYGIaA+EE72OVP6Cg1DVRj9wa4WIzFsSegTcbS4Ga0Ug66klO9v51OKaRZniGELtKikzRsoWMyBQqwRSbVpo0o+KwSC9L+pRKObAAKXowzsvi4+ikmTr1stpgITXULlQ8aOEt1g59dl09InypYPZ236+/LwMfUsXGei/6Im6CkjxvYo4JmcsPqn+1+tArpnE16A5VZUWEznesbcPclAX5zI7CymDzgDIChQsJF+K7dRDuu45bszjclHwUxmBhU6EG86f/udgQSlt8sbmGj0dnyvzvliqKn4Bcf2G6tG4DjYACqucT3DW9W4CSY3IvUDTiNDnAyzRdXaWFn6RshsXQBZs9mes5uT7UQNNh4zBXYr+LVo4GHsZmgVR3fCKUtpA2O5pxIL8blgDgJVb3dgDHc/iqTSakfofB8qBatdZMFUEK7hXyw7HbzsUzuCQGa/KOIYhYEAcsCYHvOFDnUTnUp2WfhDT617xKHW6EokctpK0u7dLGgHPDq0obEfwCytyR//614IAs9bJz4fVjhjoaLMNm11HMNXvpsp0CYoFJBzgZGFrKu3K+8WK56JQBf37RDjegOBWMqfrcOKuBsIwaHHeJzqAPdIf2Mk01wtEFRmlyVu7v80gFr21ark9kjIWSFs/eyqE+ZPOkUAPEdWjGOSJ0e33wDETkwoJW3qnAD+lwO9lngXHblF6mkCz13Ci8g2qBsgTv7NZReEFLubIZodV+kW7anLIDjaugEl9ZG7hbKChqbSZn58Q6oN/AX0FLOt3lFRvDQgw86BOni5WlufB9/i1aF3ChxmRNhsNfy9XhtbdP3Gj5iKkF7wfEmbc0gK+hOwqcqTmCa6K1q/WQkEhJS7BfnMMxWHcEH4XZKgCQmmUQU7GdOvz+x1OdL9HdH57dP0DpCe+rlinlSAT+QAGy1HO2Ef/LeHbDT7EBZFKUSVUOdk/rwziv6LBEpJEcPIoXSHPKgU5xzcwsHbldnOJ/qhQKPml+O4xBq33OwMWrcHTxxpX067CPLiwlimJWJAZdEOdQ26TOLimcXCDsG86yraIVAxabgPwet7WLMe7aw8RCkafxzO/rHVBgziqng9W/bns33Sx7T8Mkc/bhrS+tXy0MpZ3QySsKim6sDTb0DXxj5eb52BXcFcbC7/Z4gXIcoAr6/rAl0aqnZ5/z8mkyL33gFZLjquWPu6NkduLfL++HsqFyO3+g36lDLaaYgAfOgsR0ABfO6wwA4M73EIbRFz/aIe9bWjVwka5MAjALDxR4Pa9gSTnJnPzGPjUIMuVeG7e3EOYRJ8XS5ji71hOOPE6O1SCxiRCeyAAAAAAAAAAAC9hGcwo5uOMxyBJGi9wfnjJ7LP8z6s7rtEdZq7bZ5g+j4QYImPq96YQMsth3ObfTDky7KsF2XYzs4omDX3J5W39wk7A53tfZnwA1ne/BT9j9WRKtEG/hXB7YamQ8kJBCdRrwskvVyyyQu/CFgUdwmxNUeoEbzVwBoixW3bAM1TePFDjqfoSYjU3IlIAAAAAAAAANil50+q6jrCvYBKQpYAecGuNvAWIlWyneE+BSskWOc8c7q95yfYpI/id0w31nwl6KJq6YaVAiLTrv9Turv/fZUOHQLuyFQP71RMaKMLSEW1nt6m3qbmrvGG+rLPA2UtlcuDDJzunQ8UagSTRH4S7OwlXJ09eusyi9W6I5mDcW3mw8fVq+suDYWgH1Kc5kctGG/FJZbQ8Zma69dFVd9qSCl2O0izEF0l5CPVdGzoVBMXfNDu6m3zsvYZAcd2E+Ofth7vGMIkoV2+4AAYd2LqZd6U6z7hSyK7YWGA4vErq5J0HzevcyLxhfAO/fMbH8wzJU1jXNSszp3VVa2k/Lq+tu8pDPZfjgECCGHihznjYRMQY7/+2Ohqd3UfdKoVs4dR3UQWiTDe9dtnx2nKAAIlP/cgY2rx2qAF9OWR4IF1esoT/9qoHELTv61d4ba+DUKPyWOnUK9ITZF9g6r2CJqJNIAozfZaNBQb9K1Eezw66ERolkwk7oH9GJriRSInEQTzmL9h+1OPoZcQxYD7gHM6C9bPw10LBlOibS+1a2n2c9fGDm6IIDtqg8iorjY9Pq7+ypf0xbkAucn7AaZjbRtZhZS44k7Exyi17vYIghfFE1OCBmO4LRVg4JSBF5Ken1QsGCMplo/R/cswsefRRQPXK136i8Oa3puJbOG6bEz/apH9/RQd+5iJq42iCIp36oWnAK5awDkMHacXmDJFt2LvKChi5zxJm7m+/l1l+uGPdD2RCT8TxnPPcgojOrfx/UAoC/CL7gOvBKW/qqSyFRZAAQOM9zW8zsjb7XJZ04jCHwT6QSb8PZkQTL7F13KYax5wPv3FzYnGXjK40SzlzfMNqK7eVBVGAAcSG7IdTcHzMNla/NR9xRj9KWycLXxJ35+0YvVyE/PjQELkbFh7gVaFzt6WCfmPxABMiULGrVVhVTKDiKSVrDVTYowWtbUA8lDIzBWxHQpPdMwBikhvl3oyEOp4AhWmH8/2jAtZF9m6vTpFq1layY9+Qy3jc6FCH9ZnLbLkRfchUDuS34Oq9bBVbmMLghAkBOr5iiEpOuEl8nhdWPU60H0+AF8m+fl8k/jryQmmU67oOZSyTc5ANSIH1qe8xUUwKA3EKbU+YYenIID/PpeUmWDKIx1e6OyGwilMJIyo9jeDNykFqP6E2BVlM6uF+7fXyrUz2pBnf0wQGf5oGxFGcDkFVJVe/0nOJWbGXcub7nZpdNKL6d7qjLjvsNMompJSgLDU4F6Oj3wO9swIOcPZBkYwB1UU7HMmJddhEVvRtOAan8hWfnQiddD2jBdYTHSYqE7LWYbIHI7ATtJQsF6lHVkVa8RDGyqDx9Gl3Z/Ie6usuNPDyAhbHcDMIrlzNhDLWJ/sxLNXLQUsQr55UfZlxJIDzG12VYr38UFgKEtJ0SlCixH8D3jfN5UsKlZSB4YXTg8gsFE1AcI77AvhM4BiZbb9USIucYwqQtGPcnELTEmIkQDuTIUhJ45eKHS4bXTXx+FffxQov+g+rbUxAAAG9CcU/S2hQcLndF8VC2b1unf8AETO2YLm8wuObvPF4rJqNjqwOU0JKWMIDyr2gf14kxtQyiwArciPS2polzQ/Aui/Xm/C/T72tIrfW+ZjAW2+lj6VgTJIg6Q4CDN8ogdxgy5vSvMTHwkOYKEBcDJ31rwx9VvcPKDDAZZ50Ya51Ak8xQBkQS+qBu1vRtdC/Y3gAxbzWQGihCvF2zCJF3m7IQnkbCc+yt9Lk6V3Vo4GF9PrtRQ+zJXqv8JyBoxygRK+Vh83V4mjvqV3gApEAbLcNH/154CBDhIe3sKlFqJU7Q4PBMB2RYWRPl919C7Lm+eTkaGEPCTeuwpH92Ilk9QnUJEfzd+dxTq610AKKPVTJhZE46sRy1xt413SzCkaegAQNlGKCo96GGXcVf2uSciF1uqrAkQ0DGAAAxOZZHXsiZYCf7ArOpEFKt+uExFQ0BLegrrumrrKuOCXP81bkocYMMjzG5awFCCcaaa6o5rUze2+DpBFLdBsBMf7MsMVA2PdIXDJH+Ga0J50yhaEBAAaxCAJ8N1VVtQkXFrbJ/C5EF/JgWOUJ1g2DKy2BFQApAAJzs4VqlPYmuA10hoWFlGuM4mq2KeBynhPm0sE+GT46ksFo9/3Yt8RzQmuVlkvV+ffeEfZpM5ZhPf/HnxCRy+FrZv4RGWXsLJq6vVTOUNlktPdCSuLFL1TPi+bGrTo/qomX4WNFGCFbvO+N7NM9eh4S3QvI1CnVBlwNQdAI15vrWxk0/JsL8ZFWjkQDoj35CDouQBmqPXji0oRGSOuo3TAtNzFbvqSl5RDvPSQZIRznTMW3rTZf+8NIRQPwwPd5Ae98+tp3cYHNKSg0wHggmHZtJGH05RFlk/8lb8tqdWliuGudB8HLJq7CtBSVijz42AvhkIAC8TTsdC4CXwgne62jMwcXzMBAZVUaRJa9TXMzls9QMNBVtUJpZunu4XaUQuq7wuDOsbjACo3HWlT+EGoljIjePwR7l1mI4Lpyy20Td1TADPwNaOczwQJ4z9dWEj0RhG3/AhoCxq35GmAQzcwJtkSkzVgAumA5it7hmgW4lkWAm+w4T59hKFelxEM8N13vMf+eB9Z3d6B8bSeOofgAAKJUopYPb42H9AmNtMW8tXCea1ZHttZbkaACHdij0+g2/HS0bejjQngfDeZEVUsuJfGiOH1R0rAAAAAAEBdavYC5E7isr7mqZ40cSliRD/mPlKRrJL/kc7xSlTty9UxjV0/Znw841kNubQF6SjlOSGoabTw2+OYfV3sYbnZIWFjBrO6YuUYkNHS+7bj1XrUg03ZELnOc1+2FX60RHW0nZU2sQTTr/VL13Ixpf0EFoHPrIGbn5pdNHBbHwQxpbkpgWiLq/oRoi8EWYGIZ3Sri0MhPJMupXPVzdQX+qB8KLN3Xv4AH2SlOifVe+IpE/2peS6gvKCxSki1tSMHMH6IXsqbdSjQAAAGiWxxO9p5jj6hNnVGrZ7l7Q+1nCKwlWiPYufyklA4dooQ/hyVLuwA2Zc4MJRC6lxQC8CkofeJs1Bd+hDcSQC3GPi6d/fC3UyS0z9q+t96IMFSWW4UY4eC2jYFQCRUmBfeI+Ol3OoLeS5nlHbJ0lWgyKfnkzwblkvNgQm5lgPkPI+ENgKDswuk5c3Bgp5fsvncRZmX/kTVeWn8AJmnJiceFLpqD/Y+LMyGATvjSJ57i6VD16WAEdLIw+fBv4EPPorgY+4kv5LfiT5x2xcCFKnAl4lpNXvfm61JMKLt5h2kBpQIcBP7zTslSWsE1SeMde4MVZmiuisDWEg2yDoqCAcGGCDgs7wX8Luvp30GHtSghAKFbvkJe/p3v81uCZJ4+zw63OwesoWdxtpSJ/uiDGAxeOuRIERX1Ej/dUyCHDgrbUTBMRJpRPorLt5k8VRGOaYtOisH+zHfVJxxFiXqaNgF76jIaq4DLbVIcOpMQJuG/dHH5SUVCYvi92D2RyNcohMFPQIDppURia3/GwVvzZwX4zLAU+2dDjmCD7rNvngi76OAcVsfd9pewgDsfGlyumEYZ9ypkqkCZKg7ajupAyUTvy8cB+l4+f7pYLbhspnU1ebTwLWCU/VG5jNR3FZlgIvaqZSE1zXVsTsu+IIiKNNjdfh1plFCiUMSbKvJP2nbMHqbAyYucfldKkckuf1Hw/4CqVDHf9sciRCLOQcg69djTFduwP+xWzCB+4hBuRGxW7NTAjdRBe2fOP4J98rs8bArHp+dPkU5ALTnjdf9lHeB0z/NjyKm3MBdLk3v7mtZKHd8iVFVjL7NLVfqmuthH8VA6hpaL4T60DYKdP21eMfaHNi3TEpXvJQl/DH3LS7iXFVej9Jgg1kTaUHbbT3qKubNORi4a3RHc9nY9zVFp8C9GJqwSE3gaIbwUqEecAjgJUYs5w3lgxr88IQziNu+d/QKn2zGm1LjqrECbgbWiKG5nPL/beuBeIsDnanPg51Rw1hgov8MQcwC68Z/NjnBaf6oT/DD2Fz+UbCzXxgd2vTVp0AYHFsKlYSTgnCCzpV7uYGCo4zCqz2CTH9y0WybYEjIbaJkDatHdqrp2L2slZtR0sGIi8IJh/xP5nXQw+YFGmSmhasnpoucOyCLQJXIevlTzASsf1iX1WGIrUDQlEEYsRkA+4YAMg447xxMa0aCkm3AF8C6tYThKKry8VcvOROban1P0MsegIofMQHSdPky4mHpPSt705t9qrHylTuNgFVL3bXa3IRdsW3YZgMwwmXcyaj3FBZxQs6gnCThR57qo43RWmsux1j/yOeHbRBN6U/0E2LhE3xtfqIgONjeulKcRPSnGUgx6GARfEz3qRmTP/xMeV7PE8tLsum1JRlbK7PGxlpCDE5xV7azmKDFtS7UQu2ZbDgM0RsuWr1EqG7y6DY/PbSR0t9QSZ8Ly+uXjPEl0IDg08dY+h2qAe/81m9n3ftRLqVDrVvX8zVHgUNwlGhj8vFz7n0LQYd3KXwEqGIIXyfDL8qeecB8zJYAdrjdmR2u14v4GSaAH0oga3PqmmzG+owfHMOWABsE47PON4HLA7GczowCwcTDIxvNndc4wAaulm7mEu2PP8DOyZ8VG8IdRYjCZ1Z4AYwgvZqnbQO5zhXnqCC8Zk0yl8ehhKLPmoKboFAPerq2J0p1aCX28WEjkH+YoBf61lMIHMpUESSTO0XCUjmuBD0LtoKW63m3ydkAACSvvT/J3CXzeAi9OnotX/WIauFNUd5N6AuWa05UgTQVFe8ekvpG5LaROEAEkoNSlXQH7xXbuFO+ch5l2mNQRMKgFarbOEo6G92t51kEU1dcuoADmXsxdgxBcdekmhLxnl0ynIGwRZ6n3waUMNqeHAKUk4PReUD2KxwBaM3df8gXlmNendHfn/SvTLptx2ifH0mUyXAYYXoE6Z5MwMP8XKpoVUVh79pUxMkG6pRwMJpMScVWtwhQi4KJeGjP5Ko7PsFno0aCyOBRQ/AZJEvTmgtqLhDkEc97aoRUZKb7VKTCOVKXWtOIDivX+61xrc1sFj4Y1fYYQshgmN8c3mYsiPF3zeulLLszrcZCZM0a9vItThYZtRgDGENeddyFFYgKmyrBejoVX6ukdoE6FzqO/eCJNFVH3NkXUltS4YywiDAlgoafEKYBTxbsGKtu//wvWkhMrGBp4B0aMHJCEWbT3jGyVxr3CQz2Vy42pgdb6WhW/6G4birF5BEWNocwxpOE393lNa/YYItNjBEOAG7iQEI9hbgBxAyjnVbkx2/DLBgxEvkhoA9kWUkK3OK19ZKFuBiC28AGHSA7lg7xemt5RxuRcG7AYr/moGJmfWvyMcHb4ki4suGdqF1hpMjvb7twwH6rZb1aDJSdI/ZfJ4LGYZyK0wCHDKRIagiNYkztKrHEFEFRY17gFYne2RIGwmeTC6v+/s4zEX1+Ekt02l40/LStAwNgsndpekI+rb5mMKUkxjMB0DH6u0l/3acBf7xZj18CXUrfFuhRJqa30gu9t/wGNFGyD0dzktpiunS+7mW4P/RWSbzRzFSd00Kj6IoMCrP3jPMyRMBTlqCerFkzK2ZbojQ2JJhNqtJVv26oN5Jg50M0zOCIgSND7d5uYrt1S+92Wl7e+jxTmQj0PJwm//VLl8ebOUkPpzlOA93eYIjsL7QzUzORuRZs0uCoKaIeWGjUHtQQa0HcE6p3fpJjyY0GzR9vjWjk2gN09X5jyr9dvlylzIIOtFyesitIlu6FivHMfQrFetigoyur24NRPZRZInrXLRs10fL339RIUD4mvlQY5+bHXmzpdrnyelyssl6eATEfHCMCjr5F/D+MSiY1wxYDvCUju3hdk8sAkKOKlPJpnBkTq9iMzOa3C0N/jiIRZ+8uNrx/beVFAaqrmkMAErV0S8LA02gADVHA3HGeljBFF2WfM3/gk200pww55YTTfirqtzsSjEoTXE7xAWsSaJFLn0QXt5SBKrBpJ5MqA9pDyo8zb6WhSneGokANLT0GU8HwEVP2cfyP6o0S/4WKkL05W1sLL9yRI/pSnALZd5dUQNjljQ/s4GE5XSdzGkSCy8SAAAAAA==;fontColor=#000000;" parent="ogYYz_Yha8GQ06ryE8u4-1" vertex="1">
          <mxGeometry x="520" y="770" width="150" height="40" as="geometry" />
        </mxCell>
        <mxCell id="yNl9XsQ0cLvUOxnpqgXL-15" value="Time Controler" style="rounded=0;whiteSpace=wrap;html=1;fontColor=#000000;" parent="ogYYz_Yha8GQ06ryE8u4-1" vertex="1">
          <mxGeometry x="70" y="523" width="160" height="51" as="geometry" />
        </mxCell>
        <mxCell id="K4Yz-38i__KFDYXjKKUS-1" value="" style="edgeStyle=orthogonalEdgeStyle;rounded=0;orthogonalLoop=1;jettySize=auto;html=1;entryX=0;entryY=0.5;entryDx=0;entryDy=0;exitX=0;exitY=0.5;exitDx=0;exitDy=0;strokeWidth=3;fontColor=#000000;" parent="ogYYz_Yha8GQ06ryE8u4-1" source="4Q7JfauaC_aZJzyatZ7J-3" target="yNl9XsQ0cLvUOxnpqgXL-14" edge="1">
          <mxGeometry relative="1" as="geometry">
            <mxPoint x="-10" y="506.5" as="targetPoint" />
          </mxGeometry>
        </mxCell>
        <mxCell id="4Q7JfauaC_aZJzyatZ7J-3" value="Topic Interface" style="rounded=0;whiteSpace=wrap;html=1;fontColor=#000000;" parent="ogYYz_Yha8GQ06ryE8u4-1" vertex="1">
          <mxGeometry x="70" y="490" width="420" height="33" as="geometry" />
        </mxCell>
        <mxCell id="yNl9XsQ0cLvUOxnpqgXL-14" value="Ship Dynamics Model" style="rounded=0;whiteSpace=wrap;html=1;fillColor=#a0522d;strokeColor=#6D1F00;dashed=1;strokeWidth=3;fontColor=#000000;" parent="ogYYz_Yha8GQ06ryE8u4-1" vertex="1">
          <mxGeometry x="70" y="607" width="421" height="50" as="geometry" />
        </mxCell>
        <mxCell id="tGCvhHi6noPM75GcFmpN-2" value="" style="edgeStyle=orthogonalEdgeStyle;rounded=0;orthogonalLoop=1;jettySize=auto;html=1;startArrow=classic;startFill=1;endArrow=classic;endFill=1;strokeWidth=3;entryX=1;entryY=0.5;entryDx=0;entryDy=0;fontColor=#000000;fillColor=#008a00;strokeColor=#005700;" parent="ogYYz_Yha8GQ06ryE8u4-1" source="tGCvhHi6noPM75GcFmpN-0" target="NTiBn4Gaw-3yD84KuiRq-0" edge="1">
          <mxGeometry relative="1" as="geometry">
            <mxPoint x="590.9999999999998" y="500" as="targetPoint" />
          </mxGeometry>
        </mxCell>
        <mxCell id="tGCvhHi6noPM75GcFmpN-0" value="Simulator&lt;br&gt;Dashboard&lt;br&gt;(R-Qt)" style="rounded=0;whiteSpace=wrap;html=1;fillColor=#fff2cc;strokeColor=#d6b656;fontColor=#000000;" parent="ogYYz_Yha8GQ06ryE8u4-1" vertex="1">
          <mxGeometry x="671" y="456.5" width="120" height="87" as="geometry" />
        </mxCell>
      </root>
    </mxGraphModel>
  </diagram>
  <diagram name="Parameter Generator" id="5Vo2HHYEmhoNrcKzIg3W">
    <mxGraphModel dx="2062" dy="1169" grid="1" gridSize="10" guides="1" tooltips="1" connect="1" arrows="1" fold="1" page="1" pageScale="1" pageWidth="1169" pageHeight="827" math="0" shadow="0">
      <root>
        <mxCell id="oqnsa2-IDu0QCsEujT7v-0" />
        <mxCell id="oqnsa2-IDu0QCsEujT7v-1" parent="oqnsa2-IDu0QCsEujT7v-0" />
        <mxCell id="Yh4_wQBbZ7mPIuUCwQSo-4" value="" style="edgeStyle=orthogonalEdgeStyle;rounded=0;orthogonalLoop=1;jettySize=auto;html=1;startArrow=none;startFill=0;strokeWidth=3;" parent="oqnsa2-IDu0QCsEujT7v-1" source="Yh4_wQBbZ7mPIuUCwQSo-0" target="Yh4_wQBbZ7mPIuUCwQSo-1" edge="1">
          <mxGeometry relative="1" as="geometry" />
        </mxCell>
        <mxCell id="Yh4_wQBbZ7mPIuUCwQSo-0" value="Parameter List (XML, yaml etc.)" style="rounded=0;whiteSpace=wrap;html=1;" parent="oqnsa2-IDu0QCsEujT7v-1" vertex="1">
          <mxGeometry x="120" y="40" width="440" height="40" as="geometry" />
        </mxCell>
        <mxCell id="Yh4_wQBbZ7mPIuUCwQSo-6" value="" style="edgeStyle=orthogonalEdgeStyle;rounded=0;orthogonalLoop=1;jettySize=auto;html=1;startArrow=none;startFill=0;strokeWidth=3;entryX=0.5;entryY=0;entryDx=0;entryDy=0;" parent="oqnsa2-IDu0QCsEujT7v-1" source="Yh4_wQBbZ7mPIuUCwQSo-1" target="Yh4_wQBbZ7mPIuUCwQSo-2" edge="1">
          <mxGeometry relative="1" as="geometry">
            <mxPoint x="340" y="320" as="targetPoint" />
          </mxGeometry>
        </mxCell>
        <mxCell id="Yh4_wQBbZ7mPIuUCwQSo-1" value="Parameter Generator" style="rounded=0;whiteSpace=wrap;html=1;fillColor=#dae8fc;strokeColor=#6c8ebf;" parent="oqnsa2-IDu0QCsEujT7v-1" vertex="1">
          <mxGeometry x="120" y="160" width="440" height="80" as="geometry" />
        </mxCell>
        <mxCell id="Yh4_wQBbZ7mPIuUCwQSo-2" value="Struct, Class etc.&lt;br&gt;(Parameter Type)" style="rounded=0;whiteSpace=wrap;html=1;fillColor=#f8cecc;strokeColor=#b85450;" parent="oqnsa2-IDu0QCsEujT7v-1" vertex="1">
          <mxGeometry x="120" y="320" width="200" height="80" as="geometry" />
        </mxCell>
        <mxCell id="Yh4_wQBbZ7mPIuUCwQSo-3" value="Register to &lt;br&gt;ROS Param &amp;amp; Dynamic Reconf." style="rounded=0;whiteSpace=wrap;html=1;fillColor=#f8cecc;strokeColor=#b85450;" parent="oqnsa2-IDu0QCsEujT7v-1" vertex="1">
          <mxGeometry x="360" y="320" width="200" height="80" as="geometry" />
        </mxCell>
        <mxCell id="Yh4_wQBbZ7mPIuUCwQSo-7" value="" style="edgeStyle=orthogonalEdgeStyle;rounded=0;orthogonalLoop=1;jettySize=auto;html=1;startArrow=none;startFill=0;strokeWidth=3;exitX=0.5;exitY=1;exitDx=0;exitDy=0;" parent="oqnsa2-IDu0QCsEujT7v-1" source="Yh4_wQBbZ7mPIuUCwQSo-1" target="Yh4_wQBbZ7mPIuUCwQSo-3" edge="1">
          <mxGeometry relative="1" as="geometry">
            <mxPoint x="350" y="250" as="sourcePoint" />
            <mxPoint x="230" y="330" as="targetPoint" />
          </mxGeometry>
        </mxCell>
      </root>
    </mxGraphModel>
  </diagram>
  <diagram id="d3IsfG7pUkF842TEUNT_" name="Simulator Work Flow">
    <mxGraphModel dx="4606" dy="2775" grid="1" gridSize="10" guides="1" tooltips="1" connect="1" arrows="1" fold="1" page="1" pageScale="1" pageWidth="1169" pageHeight="827" math="1" shadow="0">
      <root>
        <mxCell id="2KQb50pg1oSuZC46yPAE-0" />
        <mxCell id="2KQb50pg1oSuZC46yPAE-1" parent="2KQb50pg1oSuZC46yPAE-0" />
        <mxCell id="vF2M4DhDHJfmZU3dDPVB-35" value="Interface Classes" style="rounded=0;whiteSpace=wrap;html=1;fillColor=#fff2cc;strokeColor=#d6b656;verticalAlign=top;" parent="2KQb50pg1oSuZC46yPAE-1" vertex="1">
          <mxGeometry x="-795" y="-679.5" width="290" height="1439" as="geometry" />
        </mxCell>
        <mxCell id="vF2M4DhDHJfmZU3dDPVB-23" value="Shipsim Core" style="rounded=0;whiteSpace=wrap;html=1;fillColor=#fff2cc;strokeColor=#d6b656;verticalAlign=top;" parent="2KQb50pg1oSuZC46yPAE-1" vertex="1">
          <mxGeometry x="-460" y="-679.5" width="290" height="1439" as="geometry" />
        </mxCell>
        <mxCell id="vF2M4DhDHJfmZU3dDPVB-24" value="updatePhyParam" style="rounded=0;whiteSpace=wrap;html=1;fillColor=#ffe6cc;strokeColor=#d79b00;verticalAlign=top;" parent="2KQb50pg1oSuZC46yPAE-1" vertex="1">
          <mxGeometry x="-420" y="-370" width="210" height="120" as="geometry" />
        </mxCell>
        <mxCell id="vF2M4DhDHJfmZU3dDPVB-25" value="updateShipParam" style="rounded=0;whiteSpace=wrap;html=1;fillColor=#ffe6cc;strokeColor=#d79b00;verticalAlign=top;" parent="2KQb50pg1oSuZC46yPAE-1" vertex="1">
          <mxGeometry x="-420" y="-210" width="210" height="130" as="geometry" />
        </mxCell>
        <mxCell id="vF2M4DhDHJfmZU3dDPVB-27" value="solverClass" style="rounded=0;whiteSpace=wrap;html=1;fillColor=#ffe6cc;strokeColor=#d79b00;verticalAlign=top;" parent="2KQb50pg1oSuZC46yPAE-1" vertex="1">
          <mxGeometry x="-420" y="160" width="210" height="440" as="geometry" />
        </mxCell>
        <mxCell id="vF2M4DhDHJfmZU3dDPVB-22" value="Dynamics Model Class" style="rounded=0;whiteSpace=wrap;html=1;fillColor=#fff2cc;strokeColor=#d6b656;verticalAlign=top;" parent="2KQb50pg1oSuZC46yPAE-1" vertex="1">
          <mxGeometry x="-110" y="-680" width="290" height="1439" as="geometry" />
        </mxCell>
        <mxCell id="2KQb50pg1oSuZC46yPAE-3" value="" style="ellipse;html=1;shape=startState;fillColor=#000000;strokeColor=#ff0000;" parent="2KQb50pg1oSuZC46yPAE-1" vertex="1">
          <mxGeometry x="-665" y="-780" width="30" height="30" as="geometry" />
        </mxCell>
        <mxCell id="2KQb50pg1oSuZC46yPAE-4" value="" style="edgeStyle=orthogonalEdgeStyle;html=1;verticalAlign=bottom;endArrow=open;endSize=8;strokeColor=#ff0000;exitX=0.5;exitY=1;exitDx=0;exitDy=0;entryX=0.5;entryY=0;entryDx=0;entryDy=0;" parent="2KQb50pg1oSuZC46yPAE-1" source="2KQb50pg1oSuZC46yPAE-3" target="vF2M4DhDHJfmZU3dDPVB-33" edge="1">
          <mxGeometry relative="1" as="geometry">
            <mxPoint x="-650" y="-721" as="targetPoint" />
            <mxPoint x="-615" y="-751" as="sourcePoint" />
          </mxGeometry>
        </mxCell>
        <mxCell id="2KQb50pg1oSuZC46yPAE-10" style="edgeStyle=orthogonalEdgeStyle;rounded=0;orthogonalLoop=1;jettySize=auto;html=1;exitX=0.5;exitY=1;exitDx=0;exitDy=0;entryX=0.5;entryY=0;entryDx=0;entryDy=0;" parent="2KQb50pg1oSuZC46yPAE-1" source="2KQb50pg1oSuZC46yPAE-7" target="2KQb50pg1oSuZC46yPAE-9" edge="1">
          <mxGeometry relative="1" as="geometry" />
        </mxCell>
        <mxCell id="2KQb50pg1oSuZC46yPAE-7" value="calc Force" style="rounded=1;whiteSpace=wrap;html=1;arcSize=40;fontColor=#000000;fillColor=#ffffc0;strokeColor=#ff0000;" parent="2KQb50pg1oSuZC46yPAE-1" vertex="1">
          <mxGeometry x="-45" y="120" width="120" height="40" as="geometry" />
        </mxCell>
        <mxCell id="2KQb50pg1oSuZC46yPAE-12" style="edgeStyle=orthogonalEdgeStyle;rounded=0;orthogonalLoop=1;jettySize=auto;html=1;exitX=0.5;exitY=1;exitDx=0;exitDy=0;dashed=1;" parent="2KQb50pg1oSuZC46yPAE-1" source="2KQb50pg1oSuZC46yPAE-9" target="2KQb50pg1oSuZC46yPAE-11" edge="1">
          <mxGeometry relative="1" as="geometry" />
        </mxCell>
        <mxCell id="2KQb50pg1oSuZC46yPAE-9" value="setForce to Rungekutta1st buffer" style="rounded=1;whiteSpace=wrap;html=1;arcSize=40;fontColor=#000000;fillColor=#ffffc0;strokeColor=#ff0000;" parent="2KQb50pg1oSuZC46yPAE-1" vertex="1">
          <mxGeometry x="-390" y="200" width="120" height="40" as="geometry" />
        </mxCell>
        <mxCell id="2KQb50pg1oSuZC46yPAE-14" style="edgeStyle=orthogonalEdgeStyle;rounded=0;orthogonalLoop=1;jettySize=auto;html=1;exitX=0.5;exitY=1;exitDx=0;exitDy=0;entryX=0.5;entryY=0;entryDx=0;entryDy=0;" parent="2KQb50pg1oSuZC46yPAE-1" source="2KQb50pg1oSuZC46yPAE-11" target="2KQb50pg1oSuZC46yPAE-13" edge="1">
          <mxGeometry relative="1" as="geometry" />
        </mxCell>
        <mxCell id="2KQb50pg1oSuZC46yPAE-11" value="calc Force" style="rounded=1;whiteSpace=wrap;html=1;arcSize=40;fontColor=#000000;fillColor=#ffffc0;strokeColor=#ff0000;" parent="2KQb50pg1oSuZC46yPAE-1" vertex="1">
          <mxGeometry x="-50" y="280" width="120" height="40" as="geometry" />
        </mxCell>
        <mxCell id="2KQb50pg1oSuZC46yPAE-24" style="edgeStyle=orthogonalEdgeStyle;rounded=0;orthogonalLoop=1;jettySize=auto;html=1;exitX=0.5;exitY=1;exitDx=0;exitDy=0;" parent="2KQb50pg1oSuZC46yPAE-1" source="2KQb50pg1oSuZC46yPAE-13" target="2KQb50pg1oSuZC46yPAE-23" edge="1">
          <mxGeometry relative="1" as="geometry" />
        </mxCell>
        <mxCell id="2KQb50pg1oSuZC46yPAE-13" value="setForce to Rungekutta4th buffer" style="rounded=1;whiteSpace=wrap;html=1;arcSize=40;fontColor=#000000;fillColor=#ffffc0;strokeColor=#ff0000;" parent="2KQb50pg1oSuZC46yPAE-1" vertex="1">
          <mxGeometry x="-390" y="360" width="120" height="40" as="geometry" />
        </mxCell>
        <mxCell id="2KQb50pg1oSuZC46yPAE-18" value="class private variables" style="edgeStyle=orthogonalEdgeStyle;rounded=0;orthogonalLoop=1;jettySize=auto;html=1;entryX=0.5;entryY=0;entryDx=0;entryDy=0;" parent="2KQb50pg1oSuZC46yPAE-1" target="2KQb50pg1oSuZC46yPAE-7" edge="1">
          <mxGeometry relative="1" as="geometry">
            <mxPoint x="15" y="30" as="sourcePoint" />
          </mxGeometry>
        </mxCell>
        <mxCell id="vF2M4DhDHJfmZU3dDPVB-18" style="edgeStyle=orthogonalEdgeStyle;rounded=0;orthogonalLoop=1;jettySize=auto;html=1;exitX=0.5;exitY=1;exitDx=0;exitDy=0;entryX=0.5;entryY=0;entryDx=0;entryDy=0;" parent="2KQb50pg1oSuZC46yPAE-1" source="2KQb50pg1oSuZC46yPAE-15" target="vF2M4DhDHJfmZU3dDPVB-17" edge="1">
          <mxGeometry relative="1" as="geometry" />
        </mxCell>
        <mxCell id="2KQb50pg1oSuZC46yPAE-15" value="set newPhyParam" style="rounded=1;whiteSpace=wrap;html=1;arcSize=40;fontColor=#000000;fillColor=#ffffc0;strokeColor=#ff0000;" parent="2KQb50pg1oSuZC46yPAE-1" vertex="1">
          <mxGeometry x="-45" y="-80" width="120" height="40" as="geometry" />
        </mxCell>
        <mxCell id="2KQb50pg1oSuZC46yPAE-22" style="edgeStyle=orthogonalEdgeStyle;rounded=0;orthogonalLoop=1;jettySize=auto;html=1;exitX=0.5;exitY=1;exitDx=0;exitDy=0;entryX=0.5;entryY=0;entryDx=0;entryDy=0;" parent="2KQb50pg1oSuZC46yPAE-1" source="2KQb50pg1oSuZC46yPAE-20" target="2KQb50pg1oSuZC46yPAE-15" edge="1">
          <mxGeometry relative="1" as="geometry" />
        </mxCell>
        <mxCell id="vF2M4DhDHJfmZU3dDPVB-8" value="Message structure" style="text;html=1;resizable=0;points=[];align=center;verticalAlign=middle;labelBackgroundColor=#ffffff;" parent="2KQb50pg1oSuZC46yPAE-22" vertex="1" connectable="0">
          <mxGeometry x="0.0597" relative="1" as="geometry">
            <mxPoint x="-79" as="offset" />
          </mxGeometry>
        </mxCell>
        <mxCell id="2KQb50pg1oSuZC46yPAE-20" value="updateShipParam" style="rounded=1;whiteSpace=wrap;html=1;arcSize=40;fontColor=#000000;fillColor=#ffffc0;strokeColor=#ff0000;" parent="2KQb50pg1oSuZC46yPAE-1" vertex="1">
          <mxGeometry x="-400" y="-160" width="120" height="40" as="geometry" />
        </mxCell>
        <mxCell id="2KQb50pg1oSuZC46yPAE-26" style="edgeStyle=orthogonalEdgeStyle;rounded=0;orthogonalLoop=1;jettySize=auto;html=1;exitX=0.5;exitY=1;exitDx=0;exitDy=0;" parent="2KQb50pg1oSuZC46yPAE-1" source="2KQb50pg1oSuZC46yPAE-23" target="2KQb50pg1oSuZC46yPAE-25" edge="1">
          <mxGeometry relative="1" as="geometry" />
        </mxCell>
        <mxCell id="2KQb50pg1oSuZC46yPAE-23" value="updateVelocity" style="rounded=1;whiteSpace=wrap;html=1;arcSize=40;fontColor=#000000;fillColor=#ffffc0;strokeColor=#ff0000;" parent="2KQb50pg1oSuZC46yPAE-1" vertex="1">
          <mxGeometry x="-390" y="440" width="120" height="40" as="geometry" />
        </mxCell>
        <mxCell id="vF2M4DhDHJfmZU3dDPVB-1" style="edgeStyle=orthogonalEdgeStyle;rounded=0;orthogonalLoop=1;jettySize=auto;html=1;exitX=0.5;exitY=1;exitDx=0;exitDy=0;" parent="2KQb50pg1oSuZC46yPAE-1" source="2KQb50pg1oSuZC46yPAE-25" target="vF2M4DhDHJfmZU3dDPVB-0" edge="1">
          <mxGeometry relative="1" as="geometry" />
        </mxCell>
        <mxCell id="2KQb50pg1oSuZC46yPAE-25" value="updatePosition" style="rounded=1;whiteSpace=wrap;html=1;arcSize=40;fontColor=#000000;fillColor=#ffffc0;strokeColor=#ff0000;" parent="2KQb50pg1oSuZC46yPAE-1" vertex="1">
          <mxGeometry x="-390" y="520" width="120" height="40" as="geometry" />
        </mxCell>
        <mxCell id="vF2M4DhDHJfmZU3dDPVB-3" style="edgeStyle=orthogonalEdgeStyle;rounded=0;orthogonalLoop=1;jettySize=auto;html=1;exitX=0.5;exitY=1;exitDx=0;exitDy=0;entryX=0.5;entryY=0;entryDx=0;entryDy=0;" parent="2KQb50pg1oSuZC46yPAE-1" source="vF2M4DhDHJfmZU3dDPVB-0" target="vF2M4DhDHJfmZU3dDPVB-2" edge="1">
          <mxGeometry relative="1" as="geometry" />
        </mxCell>
        <mxCell id="vF2M4DhDHJfmZU3dDPVB-0" value="generateSensorData" style="rounded=1;whiteSpace=wrap;html=1;arcSize=40;fontColor=#000000;fillColor=#ffffc0;strokeColor=#ff0000;" parent="2KQb50pg1oSuZC46yPAE-1" vertex="1">
          <mxGeometry x="-740" y="600" width="120" height="40" as="geometry" />
        </mxCell>
        <mxCell id="vF2M4DhDHJfmZU3dDPVB-2" value="sendTopicData" style="rounded=1;whiteSpace=wrap;html=1;arcSize=40;fontColor=#000000;fillColor=#ffffc0;strokeColor=#ff0000;" parent="2KQb50pg1oSuZC46yPAE-1" vertex="1">
          <mxGeometry x="-740" y="680" width="120" height="40" as="geometry" />
        </mxCell>
        <mxCell id="vF2M4DhDHJfmZU3dDPVB-7" style="edgeStyle=orthogonalEdgeStyle;rounded=0;orthogonalLoop=1;jettySize=auto;html=1;exitX=0.5;exitY=1;exitDx=0;exitDy=0;" parent="2KQb50pg1oSuZC46yPAE-1" source="vF2M4DhDHJfmZU3dDPVB-4" target="vF2M4DhDHJfmZU3dDPVB-13" edge="1">
          <mxGeometry relative="1" as="geometry">
            <mxPoint x="-540" y="-540" as="targetPoint" />
          </mxGeometry>
        </mxCell>
        <mxCell id="vF2M4DhDHJfmZU3dDPVB-4" value="generateControlParam" style="rounded=1;whiteSpace=wrap;html=1;arcSize=40;fontColor=#000000;fillColor=#ffffc0;strokeColor=#ff0000;" parent="2KQb50pg1oSuZC46yPAE-1" vertex="1">
          <mxGeometry x="-710" y="-400" width="120" height="40" as="geometry" />
        </mxCell>
        <mxCell id="vF2M4DhDHJfmZU3dDPVB-6" style="edgeStyle=orthogonalEdgeStyle;rounded=0;orthogonalLoop=1;jettySize=auto;html=1;exitX=0.5;exitY=1;exitDx=0;exitDy=0;" parent="2KQb50pg1oSuZC46yPAE-1" source="vF2M4DhDHJfmZU3dDPVB-5" target="vF2M4DhDHJfmZU3dDPVB-4" edge="1">
          <mxGeometry relative="1" as="geometry" />
        </mxCell>
        <mxCell id="vF2M4DhDHJfmZU3dDPVB-5" value="ReceiveTopicData" style="rounded=1;whiteSpace=wrap;html=1;arcSize=40;fontColor=#000000;fillColor=#ffffc0;strokeColor=#ff0000;" parent="2KQb50pg1oSuZC46yPAE-1" vertex="1">
          <mxGeometry x="-710" y="-475" width="120" height="40" as="geometry" />
        </mxCell>
        <mxCell id="vF2M4DhDHJfmZU3dDPVB-9" value="Force structure" style="text;html=1;resizable=0;points=[];autosize=1;align=left;verticalAlign=top;spacingTop=-4;" parent="2KQb50pg1oSuZC46yPAE-1" vertex="1">
          <mxGeometry x="-200" y="153" width="100" height="20" as="geometry" />
        </mxCell>
        <mxCell id="vF2M4DhDHJfmZU3dDPVB-14" style="edgeStyle=orthogonalEdgeStyle;rounded=0;orthogonalLoop=1;jettySize=auto;html=1;exitX=0.5;exitY=1;exitDx=0;exitDy=0;entryX=0.5;entryY=0;entryDx=0;entryDy=0;" parent="2KQb50pg1oSuZC46yPAE-1" source="vF2M4DhDHJfmZU3dDPVB-12" target="2KQb50pg1oSuZC46yPAE-20" edge="1">
          <mxGeometry relative="1" as="geometry" />
        </mxCell>
        <mxCell id="vF2M4DhDHJfmZU3dDPVB-12" value="ReceiveParam" style="rounded=1;whiteSpace=wrap;html=1;arcSize=40;fontColor=#000000;fillColor=#ffffc0;strokeColor=#ff0000;" parent="2KQb50pg1oSuZC46yPAE-1" vertex="1">
          <mxGeometry x="-710" y="-240" width="120" height="40" as="geometry" />
        </mxCell>
        <mxCell id="vF2M4DhDHJfmZU3dDPVB-15" style="edgeStyle=orthogonalEdgeStyle;rounded=0;orthogonalLoop=1;jettySize=auto;html=1;exitX=0.5;exitY=1;exitDx=0;exitDy=0;" parent="2KQb50pg1oSuZC46yPAE-1" source="vF2M4DhDHJfmZU3dDPVB-13" target="vF2M4DhDHJfmZU3dDPVB-12" edge="1">
          <mxGeometry relative="1" as="geometry" />
        </mxCell>
        <mxCell id="vF2M4DhDHJfmZU3dDPVB-13" value="updatePhyParam" style="rounded=1;whiteSpace=wrap;html=1;arcSize=40;fontColor=#000000;fillColor=#ffffc0;strokeColor=#ff0000;" parent="2KQb50pg1oSuZC46yPAE-1" vertex="1">
          <mxGeometry x="-400" y="-320" width="120" height="40" as="geometry" />
        </mxCell>
        <mxCell id="vF2M4DhDHJfmZU3dDPVB-17" value="set newShipParam" style="rounded=1;whiteSpace=wrap;html=1;arcSize=40;fontColor=#000000;fillColor=#ffffc0;strokeColor=#ff0000;" parent="2KQb50pg1oSuZC46yPAE-1" vertex="1">
          <mxGeometry x="-45" width="120" height="40" as="geometry" />
        </mxCell>
        <mxCell id="vF2M4DhDHJfmZU3dDPVB-19" value="Message of dynamics&lt;br&gt;(Dynamic Param)&lt;br&gt;&lt;br&gt;Velocity&lt;br&gt;Propeller rotation&lt;br&gt;Rudder angle&lt;br&gt;Wind&lt;br&gt;Wave&lt;br&gt;etc." style="shape=callout;whiteSpace=wrap;html=1;perimeter=calloutPerimeter;position2=0.29;" parent="2KQb50pg1oSuZC46yPAE-1" vertex="1">
          <mxGeometry x="30" y="-250" width="140" height="180" as="geometry" />
        </mxCell>
        <mxCell id="vF2M4DhDHJfmZU3dDPVB-21" value="Message of ShipParam&lt;br&gt;(Static Param)&lt;br&gt;&lt;br&gt;X,Y,Z,K_P,H,R&lt;br&gt;Mass&lt;br&gt;L, B, D, etc.." style="shape=callout;whiteSpace=wrap;html=1;perimeter=calloutPerimeter;position2=1;size=23;position=0.88;base=82;" parent="2KQb50pg1oSuZC46yPAE-1" vertex="1">
          <mxGeometry x="-165" y="-120" width="130" height="140" as="geometry" />
        </mxCell>
        <mxCell id="vF2M4DhDHJfmZU3dDPVB-30" value="setTimeInterval" style="rounded=0;whiteSpace=wrap;html=1;fillColor=#ffe6cc;strokeColor=#d79b00;verticalAlign=top;" parent="2KQb50pg1oSuZC46yPAE-1" vertex="1">
          <mxGeometry x="-420" y="-610" width="210" height="135" as="geometry" />
        </mxCell>
        <mxCell id="vF2M4DhDHJfmZU3dDPVB-32" style="edgeStyle=orthogonalEdgeStyle;rounded=0;orthogonalLoop=1;jettySize=auto;html=1;exitX=0.5;exitY=1;exitDx=0;exitDy=0;" parent="2KQb50pg1oSuZC46yPAE-1" source="vF2M4DhDHJfmZU3dDPVB-31" target="vF2M4DhDHJfmZU3dDPVB-5" edge="1">
          <mxGeometry relative="1" as="geometry" />
        </mxCell>
        <mxCell id="vF2M4DhDHJfmZU3dDPVB-31" value="setDT" style="rounded=1;whiteSpace=wrap;html=1;arcSize=40;fontColor=#000000;fillColor=#ffffc0;strokeColor=#ff0000;" parent="2KQb50pg1oSuZC46yPAE-1" vertex="1">
          <mxGeometry x="-375" y="-555" width="120" height="40" as="geometry" />
        </mxCell>
        <mxCell id="vF2M4DhDHJfmZU3dDPVB-34" style="edgeStyle=orthogonalEdgeStyle;rounded=0;orthogonalLoop=1;jettySize=auto;html=1;exitX=0.5;exitY=1;exitDx=0;exitDy=0;entryX=0.5;entryY=0;entryDx=0;entryDy=0;" parent="2KQb50pg1oSuZC46yPAE-1" source="vF2M4DhDHJfmZU3dDPVB-33" target="vF2M4DhDHJfmZU3dDPVB-31" edge="1">
          <mxGeometry relative="1" as="geometry" />
        </mxCell>
        <mxCell id="vF2M4DhDHJfmZU3dDPVB-33" value="getDT" style="rounded=1;whiteSpace=wrap;html=1;arcSize=40;fontColor=#000000;fillColor=#ffffc0;strokeColor=#ff0000;" parent="2KQb50pg1oSuZC46yPAE-1" vertex="1">
          <mxGeometry x="-710" y="-640" width="120" height="40" as="geometry" />
        </mxCell>
        <mxCell id="vF2M4DhDHJfmZU3dDPVB-36" value="Node Class" style="rounded=0;whiteSpace=wrap;html=1;fillColor=#fff2cc;strokeColor=#d6b656;verticalAlign=top;" parent="2KQb50pg1oSuZC46yPAE-1" vertex="1">
          <mxGeometry x="-1130" y="-680" width="290" height="1439" as="geometry" />
        </mxCell>
      </root>
    </mxGraphModel>
  </diagram>
  <diagram id="jFhKW2cbAlXSb8u0z2-p" name="Simulator">
    <mxGraphModel dx="2062" dy="1169" grid="0" gridSize="5" guides="1" tooltips="1" connect="1" arrows="1" fold="1" page="1" pageScale="1" pageWidth="1169" pageHeight="827" background="#ffffff" math="0" shadow="0">
      <root>
        <mxCell id="LweRl_2u26xrB3aK8c9x-0" />
        <mxCell id="LweRl_2u26xrB3aK8c9x-1" parent="LweRl_2u26xrB3aK8c9x-0" />
        <mxCell id="LweRl_2u26xrB3aK8c9x-2" value="ROS2 Node: Dynamics Model" style="rounded=0;whiteSpace=wrap;html=1;fontColor=#FFFFFF;strokeWidth=3;strokeColor=#001933;verticalAlign=bottom;container=1;fontStyle=1;fillColor=#333333;" vertex="1" parent="LweRl_2u26xrB3aK8c9x-1">
          <mxGeometry x="34" y="317" width="696" height="481" as="geometry" />
        </mxCell>
        <mxCell id="LweRl_2u26xrB3aK8c9x-9" value="shipsim::core" style="rounded=0;whiteSpace=wrap;html=1;strokeWidth=3;verticalAlign=bottom;container=1;fontColor=#FFFFFF;fontStyle=1;fillColor=#666666;strokeColor=#000000;" vertex="1" parent="LweRl_2u26xrB3aK8c9x-2">
          <mxGeometry x="17.09" y="13" width="661.81" height="442.32" as="geometry" />
        </mxCell>
        <mxCell id="LweRl_2u26xrB3aK8c9x-17" style="edgeStyle=orthogonalEdgeStyle;rounded=0;orthogonalLoop=1;jettySize=auto;html=1;exitX=0.5;exitY=1;exitDx=0;exitDy=0;entryX=0.5;entryY=0;entryDx=0;entryDy=0;entryPerimeter=0;fontColor=#FFFFFF;strokeWidth=4;startArrow=classic;startFill=1;strokeColor=#FF8000;" edge="1" parent="LweRl_2u26xrB3aK8c9x-9" source="LweRl_2u26xrB3aK8c9x-8" target="LweRl_2u26xrB3aK8c9x-10">
          <mxGeometry relative="1" as="geometry" />
        </mxCell>
        <mxCell id="LweRl_2u26xrB3aK8c9x-8" value="shipsim::topicif" style="rounded=0;whiteSpace=wrap;html=1;strokeWidth=3;verticalAlign=top;container=1;fillColor=#1A1A1A;strokeColor=#000000;fontColor=#FF8000;" vertex="1" parent="LweRl_2u26xrB3aK8c9x-9">
          <mxGeometry x="27.469978154027224" y="13.383131055583885" width="606.8595173845272" height="107.63125783548425" as="geometry" />
        </mxCell>
        <mxCell id="LweRl_2u26xrB3aK8c9x-21" value="publisher&lt;br&gt;pos/vel/acc" style="rounded=0;whiteSpace=wrap;html=1;strokeWidth=3;verticalAlign=top;container=1;fillColor=#000033;fontColor=#66FF66;strokeColor=#66FF66;" vertex="1" parent="LweRl_2u26xrB3aK8c9x-8">
          <mxGeometry x="12.44" y="45.62" width="97.56" height="47.38" as="geometry" />
        </mxCell>
        <mxCell id="LweRl_2u26xrB3aK8c9x-22" value="publisher&lt;br&gt;status" style="rounded=0;whiteSpace=wrap;html=1;strokeWidth=3;verticalAlign=top;container=1;fillColor=#000033;fontColor=#66FF66;strokeColor=#66FF66;" vertex="1" parent="LweRl_2u26xrB3aK8c9x-8">
          <mxGeometry x="118.44" y="45.620000000000005" width="97.56" height="47.38" as="geometry" />
        </mxCell>
        <mxCell id="LweRl_2u26xrB3aK8c9x-10" value="&lt;span&gt;Common Mem.&lt;/span&gt;" style="shape=cylinder3;whiteSpace=wrap;html=1;boundedLbl=1;backgroundOutline=1;size=15;strokeWidth=3;fontColor=#FFFFFF;verticalAlign=bottom;fillColor=#000033;strokeColor=#FFFFFF;" vertex="1" parent="LweRl_2u26xrB3aK8c9x-9">
          <mxGeometry x="271.68000000000006" y="161" width="118.44" height="57.06" as="geometry" />
        </mxCell>
        <mxCell id="LweRl_2u26xrB3aK8c9x-11" value="shipsim_model::model" style="rounded=0;whiteSpace=wrap;html=1;strokeWidth=3;verticalAlign=top;container=1;fontColor=#000000;align=left;fillColor=#1A1A1A;strokeColor=#000000;" vertex="1" parent="LweRl_2u26xrB3aK8c9x-9">
          <mxGeometry x="380.97" y="224" width="253.37" height="192.94" as="geometry" />
        </mxCell>
        <mxCell id="LweRl_2u26xrB3aK8c9x-13" value="model" style="rounded=0;whiteSpace=wrap;html=1;strokeWidth=3;strokeColor=#001933;verticalAlign=top;container=1;fontColor=#000000;fillColor=#FFFFFF;" vertex="1" parent="LweRl_2u26xrB3aK8c9x-11">
          <mxGeometry x="5.94" y="78.1" width="142.06" height="105.84" as="geometry" />
        </mxCell>
        <mxCell id="LweRl_2u26xrB3aK8c9x-14" value="solver" style="rounded=0;whiteSpace=wrap;html=1;strokeWidth=3;strokeColor=#001933;verticalAlign=top;container=1;fontColor=#000000;fillColor=#FFFFFF;" vertex="1" parent="LweRl_2u26xrB3aK8c9x-11">
          <mxGeometry x="157.94" y="79.78825662482566" width="90.99999999999999" height="104.15139470013946" as="geometry" />
        </mxCell>
        <mxCell id="LweRl_2u26xrB3aK8c9x-15" value="Data Accessor" style="rounded=0;whiteSpace=wrap;html=1;strokeWidth=3;strokeColor=#001933;verticalAlign=top;container=1;fontColor=#000000;fillColor=#FFFFFF;" vertex="1" parent="LweRl_2u26xrB3aK8c9x-11">
          <mxGeometry x="5.94" y="31" width="242.06" height="30.31" as="geometry" />
        </mxCell>
        <mxCell id="LweRl_2u26xrB3aK8c9x-12" value="Time Counter" style="rounded=0;whiteSpace=wrap;html=1;strokeWidth=3;verticalAlign=top;container=1;fillColor=#1A1A1A;strokeColor=#000000;fontColor=#FF8000;" vertex="1" parent="LweRl_2u26xrB3aK8c9x-9">
          <mxGeometry x="32.9099815498155" y="337.30509433962266" width="253.36821955719554" height="79.63150943396226" as="geometry" />
        </mxCell>
        <mxCell id="LweRl_2u26xrB3aK8c9x-16" value="Exception Catcher" style="rounded=0;whiteSpace=wrap;html=1;strokeWidth=3;verticalAlign=top;container=1;fillColor=#1A1A1A;strokeColor=#000000;fontColor=#FF8000;" vertex="1" parent="LweRl_2u26xrB3aK8c9x-9">
          <mxGeometry x="32.9099815498155" y="223.9950943396227" width="253.36821955719554" height="79.63150943396226" as="geometry" />
        </mxCell>
        <mxCell id="LweRl_2u26xrB3aK8c9x-18" style="edgeStyle=orthogonalEdgeStyle;rounded=0;orthogonalLoop=1;jettySize=auto;html=1;exitX=1;exitY=0.5;exitDx=0;exitDy=0;exitPerimeter=0;startArrow=classic;startFill=1;strokeWidth=4;fontColor=#FFFFFF;entryX=0.75;entryY=0;entryDx=0;entryDy=0;strokeColor=#FF8000;" edge="1" parent="LweRl_2u26xrB3aK8c9x-9" source="LweRl_2u26xrB3aK8c9x-10" target="LweRl_2u26xrB3aK8c9x-15">
          <mxGeometry relative="1" as="geometry" />
        </mxCell>
        <mxCell id="LweRl_2u26xrB3aK8c9x-19" style="edgeStyle=orthogonalEdgeStyle;rounded=0;orthogonalLoop=1;jettySize=auto;html=1;exitX=1;exitY=0.5;exitDx=0;exitDy=0;startArrow=classic;startFill=1;strokeWidth=4;fontColor=#FFFFFF;entryX=0;entryY=0.25;entryDx=0;entryDy=0;strokeColor=#FF8000;" edge="1" parent="LweRl_2u26xrB3aK8c9x-9" source="LweRl_2u26xrB3aK8c9x-16" target="LweRl_2u26xrB3aK8c9x-11">
          <mxGeometry relative="1" as="geometry">
            <mxPoint x="395.12" y="194.52999999999997" as="sourcePoint" />
            <mxPoint x="573.455" y="260" as="targetPoint" />
          </mxGeometry>
        </mxCell>
        <mxCell id="LweRl_2u26xrB3aK8c9x-20" style="edgeStyle=orthogonalEdgeStyle;rounded=0;orthogonalLoop=1;jettySize=auto;html=1;exitX=1;exitY=0.5;exitDx=0;exitDy=0;startArrow=classic;startFill=1;strokeWidth=4;fontColor=#FFFFFF;entryX=0;entryY=0.75;entryDx=0;entryDy=0;strokeColor=#FF8000;" edge="1" parent="LweRl_2u26xrB3aK8c9x-9" source="LweRl_2u26xrB3aK8c9x-12" target="LweRl_2u26xrB3aK8c9x-11">
          <mxGeometry relative="1" as="geometry">
            <mxPoint x="291.2782011070109" y="268.81084905660373" as="sourcePoint" />
            <mxPoint x="385.9699999999999" y="277.2349999999999" as="targetPoint" />
          </mxGeometry>
        </mxCell>
      </root>
    </mxGraphModel>
  </diagram>
</mxfile>
